<svg id="Сгруппировать_4" data-name="Сгруппировать 4" xmlns="http://www.w3.org/2000/svg" xmlns:xlink="http://www.w3.org/1999/xlink" width="55" height="54.794" viewBox="0 0 55 54.794">
  <defs>
    <clipPath id="clip-path">
      <rect id="Прямоугольник_22" data-name="Прямоугольник 22" width="55" height="54.794" fill="#0068c6" opacity="0"/>
    </clipPath>
  </defs>
  <g id="Группа_масок_5" data-name="Группа масок 5" transform="translate(0)" clip-path="url(#clip-path)">
    <g id="wifi" transform="translate(9.331)">
      <g id="Сгруппировать_20" data-name="Сгруппировать 20" transform="translate(35.195 22.487)">
        <g id="Сгруппировать_19" data-name="Сгруппировать 19">
          <path id="Контур_34" data-name="Контур 34" d="M44.273,22.064a1.068,1.068,0,1,0,.314.757A1.083,1.083,0,0,0,44.273,22.064Z" transform="translate(-42.441 -21.751)" fill="#0068c6"/>
        </g>
      </g>
      <g id="Сгруппировать_22" data-name="Сгруппировать 22">
        <g id="Сгруппировать_21" data-name="Сгруппировать 21">
          <path id="Контур_35" data-name="Контур 35" d="M44.756,19.585a1.072,1.072,0,0,0,1.073-1.07V4.067A4.077,4.077,0,0,0,41.752,0H12.566A4.077,4.077,0,0,0,8.488,4.067V50.727a4.077,4.077,0,0,0,4.077,4.067H41.752a4.077,4.077,0,0,0,4.077-4.067V28.681a1.073,1.073,0,0,0-2.146,0V50.727a1.931,1.931,0,0,1-1.931,1.926H12.566a1.931,1.931,0,0,1-1.931-1.926V4.067A1.931,1.931,0,0,1,12.566,2.14H41.752a1.931,1.931,0,0,1,1.931,1.926V18.514A1.072,1.072,0,0,0,44.756,19.585Z" transform="translate(-8.488)" fill="#0068c6"/>
        </g>
      </g>
      <g id="Сгруппировать_24" data-name="Сгруппировать 24" transform="translate(4.507 6.849)">
        <g id="Сгруппировать_23" data-name="Сгруппировать 23">
          <path id="Контур_36" data-name="Контур 36" d="M40.09,6.625H32.472a1.07,1.07,0,1,0,0,2.14h6.545V43.014H14.982V8.765h6.331a1.07,1.07,0,1,0,0-2.14h-7.4A1.072,1.072,0,0,0,12.836,7.7V44.084a1.072,1.072,0,0,0,1.073,1.07H40.09a1.072,1.072,0,0,0,1.073-1.07V7.7A1.072,1.072,0,0,0,40.09,6.625Z" transform="translate(-12.836 -6.625)" fill="#0068c6"/>
        </g>
      </g>
      <g id="Сгруппировать_26" data-name="Сгруппировать 26" transform="translate(17.609 6.849)">
        <g id="Сгруппировать_25" data-name="Сгруппировать 25">
          <path id="Контур_37" data-name="Контур 37" d="M27.308,6.939a1.068,1.068,0,1,0,.314.757A1.083,1.083,0,0,0,27.308,6.939Z" transform="translate(-25.476 -6.625)" fill="#0068c6"/>
        </g>
      </g>
      <g id="Сгруппировать_28" data-name="Сгруппировать 28" transform="translate(15.881 46.235)">
        <g id="Сгруппировать_27" data-name="Сгруппировать 27">
          <path id="Контур_38" data-name="Контур 38" d="M26.6,44.721a2.783,2.783,0,1,0,2.79,2.783A2.789,2.789,0,0,0,26.6,44.721Zm0,3.425a.642.642,0,1,1,.644-.642A.644.644,0,0,1,26.6,48.146Z" transform="translate(-23.809 -44.721)" fill="#0068c6"/>
        </g>
      </g>
      <g id="Сгруппировать_30" data-name="Сгруппировать 30" transform="translate(17.597 33.289)">
        <g id="Сгруппировать_29" data-name="Сгруппировать 29">
          <path id="Контур_39" data-name="Контур 39" d="M27.3,32.513a1.068,1.068,0,1,0,.314.757A1.083,1.083,0,0,0,27.3,32.513Z" transform="translate(-25.465 -32.2)" fill="#0068c6"/>
        </g>
      </g>
      <g id="Сгруппировать_32" data-name="Сгруппировать 32" transform="translate(8.181 19.35)">
        <g id="Сгруппировать_31" data-name="Сгруппировать 31">
          <path id="Контур_40" data-name="Контур 40" d="M37.123,23.051a14.691,14.691,0,0,0-10.248-4.333A14.054,14.054,0,0,0,16.695,22.83a1.072,1.072,0,1,0,1.518,1.514,11.918,11.918,0,0,1,8.639-3.486,12.553,12.553,0,0,1,8.755,3.706,1.072,1.072,0,1,0,1.517-1.513Z" transform="translate(-16.38 -18.717)" fill="#0068c6"/>
        </g>
      </g>
      <g id="Сгруппировать_34" data-name="Сгруппировать 34" transform="translate(11.921 24.579)">
        <g id="Сгруппировать_33" data-name="Сгруппировать 33">
          <path id="Контур_41" data-name="Контур 41" d="M33.332,26.529A9.242,9.242,0,0,0,20.3,26.4a1.072,1.072,0,0,0,1.518,1.514,6.843,6.843,0,0,1,4.956-2,7.224,7.224,0,0,1,5.037,2.134,1.072,1.072,0,0,0,1.517-1.514Z" transform="translate(-19.989 -23.775)" fill="#0068c6"/>
        </g>
      </g>
      <g id="Сгруппировать_36" data-name="Сгруппировать 36" transform="translate(15.459 29.482)">
        <g id="Сгруппировать_35" data-name="Сгруппировать 35">
          <path id="Контур_42" data-name="Контур 42" d="M29.732,29.784a4.267,4.267,0,0,0-6.015-.052,1.072,1.072,0,0,0,1.518,1.514,2.115,2.115,0,0,1,2.98.052,1.072,1.072,0,0,0,1.517-1.514Z" transform="translate(-23.402 -28.517)" fill="#0068c6"/>
        </g>
      </g>
    </g>
  </g>
</svg>
