<svg xmlns="http://www.w3.org/2000/svg" width="13" height="13"><g data-name="Сгруппировать 3" fill="#666"><path data-name="Контур 3" d="M4.593 7.172a.3.3 0 00-.3-.295h-1.03a.3.3 0 00-.295.295v1.03a.3.3 0 00.295.3h1.03a.3.3 0 00.3-.3v-1.03z"/><path data-name="Контур 4" d="M7.166 7.172a.3.3 0 00-.295-.295h-1.03a.3.3 0 00-.295.295v1.03a.3.3 0 00.295.3h1.03a.3.3 0 00.295-.3z"/><path data-name="Контур 5" d="M9.739 7.172a.3.3 0 00-.295-.295h-1.03a.3.3 0 00-.3.295v1.03a.3.3 0 00.3.3h1.03a.3.3 0 00.295-.3z"/><path data-name="Контур 6" d="M4.593 9.746a.3.3 0 00-.3-.295h-1.03a.3.3 0 00-.295.295v1.03a.3.3 0 00.295.295h1.03a.3.3 0 00.3-.295v-1.03z"/><path data-name="Контур 7" d="M7.166 9.746a.3.3 0 00-.295-.295h-1.03a.3.3 0 00-.295.295v1.03a.3.3 0 00.295.295h1.03a.3.3 0 00.295-.295z"/><path data-name="Контур 8" d="M9.739 9.746a.3.3 0 00-.295-.295h-1.03a.3.3 0 00-.3.295v1.03a.3.3 0 00.3.295h1.03a.3.3 0 00.295-.295v-1.03z"/><path data-name="Контур 9" d="M11.58 1.448V3.02a1.284 1.284 0 01-1.291 1.28h-.812a1.291 1.291 0 01-1.288-1.28V1.442H4.526V3.02A1.291 1.291 0 013.231 4.3h-.812a1.284 1.284 0 01-1.288-1.28V1.448A1.171 1.171 0 000 2.612v9.216A1.171 1.171 0 001.165 13h10.382a1.172 1.172 0 001.165-1.172V2.612a1.171 1.171 0 00-1.132-1.164zm-.377 9.806a.5.5 0 01-.5.5H1.989a.5.5 0 01-.5-.5v-4.76a.5.5 0 01.5-.5h8.71a.5.5 0 01.5.5v4.76z"/><path data-name="Контур 10" d="M2.415 3.461h.8a.441.441 0 00.441-.441V.441A.441.441 0 003.219 0h-.8a.441.441 0 00-.441.441v2.578a.441.441 0 00.437.442z"/><path data-name="Контур 11" d="M9.471 3.461h.8a.441.441 0 00.441-.441V.441A.441.441 0 0010.271 0h-.8a.441.441 0 00-.441.441v2.578a.441.441 0 00.441.442z"/></g></svg>