<svg xmlns="http://www.w3.org/2000/svg" width="30" height="30"><g data-name="checklist" fill="#390"><path data-name="Path 19" d="M15.488 12.634a5.608 5.608 0 105.608 5.608 5.614 5.614 0 00-5.608-5.608zm-.906 8.764l-3.036-3 1.236-1.25 1.847 1.826 3.59-3.287 1.187 1.3z"/><path data-name="Path 20" d="M21.879 2.47H18.26l-.2-.605a2.709 2.709 0 00-5.149 0l-.2.605H9.092V5.4h12.787z"/><path data-name="Path 21" d="M23.634 3.896v3.257h-16.3V3.896H4.002v26.105h22.967v-26.1zm-8.15 21.712a7.366 7.366 0 117.366-7.366 7.374 7.374 0 01-7.366 7.366z"/></g></svg>