<svg xmlns="http://www.w3.org/2000/svg" width="30" height="30"><g data-name="Group 40"><g data-name="Group 39"><path data-name="Path 13" d="M25.607 4.393A15 15 0 004.393 25.607 15 15 0 0025.607 4.393zM15 27.056A12.069 12.069 0 012.944 15v-.054a12.069 12.069 0 0111.891-12H15a12.056 12.056 0 110 24.112z" fill="#390"/></g></g><g data-name="Group 42"><g data-name="Group 41"><path data-name="Path 14" d="M24.157 15.724a.888.888 0 110-1.775h1.07a10.3 10.3 0 00-9.462-9.2v.931a.888.888 0 01-1.775 0v-.91a10.3 10.3 0 00-9.228 9.3h.958a.888.888 0 110 1.775h-.965a10.3 10.3 0 009.358 9.4v-1.126a.888.888 0 111.775 0v1.125a10.3 10.3 0 009.367-9.518zm-5.564-3.062l-2.965 2.965a.888.888 0 01-1.255 0l-5.161-5.161a.888.888 0 011.255-1.255l4.534 4.534 2.338-2.338a.888.888 0 111.255 1.255z" fill="#390"/></g></g></svg>