<svg data-name="Компонент 3 – 1" xmlns="http://www.w3.org/2000/svg" width="13" height="13"><path data-name="Контур 1" d="M7.754 8.006a4.656 4.656 0 001.881-1.367 2.921 2.921 0 000-3.769 4.656 4.656 0 00-1.881-1.367 6.6 6.6 0 00-2.592-.5 6.606 6.606 0 00-2.592.5A4.656 4.656 0 00.689 2.87 2.961 2.961 0 000 4.754a2.881 2.881 0 00.521 1.642 4.284 4.284 0 001.43 1.3q-.073.176-.15.323a1.859 1.859 0 01-.183.282l-.165.213q-.059.077-.191.216t-.169.183s-.01.006-.029.033-.031.039-.033.037-.012.01-.029.036l-.026.04-.019.037a.157.157 0 00-.015.044.287.287 0 000 .048.148.148 0 00.007.048.243.243 0 00.084.154.229.229 0 00.15.059H1.2a6.147 6.147 0 00.631-.117 6.165 6.165 0 002.038-.938 7.363 7.363 0 001.29.117 6.6 6.6 0 002.595-.505z" fill="#666"/><path data-name="Контур 2" d="M12.479 7.953a2.862 2.862 0 00-.029-3.333 4.346 4.346 0 00-1.5-1.305 3.773 3.773 0 01-.323 2.977 4.908 4.908 0 01-1.408 1.554 6.492 6.492 0 01-1.936.946 7.746 7.746 0 01-2.265.33q-.22 0-.645-.029a6.161 6.161 0 003.461.968 7.368 7.368 0 001.29-.117A5.855 5.855 0 0011.793 11a.221.221 0 00.161-.051.271.271 0 00.1-.161c0-.029 0-.045.007-.048s.006-.018 0-.048l-.015-.044-.018-.037a.353.353 0 00-.026-.04.316.316 0 00-.029-.037l-.033-.037-.029-.033q-.037-.044-.169-.183t-.191-.216l-.165-.213a1.855 1.855 0 01-.183-.282q-.077-.147-.15-.323a4.3 4.3 0 001.426-1.294z" fill="#666"/></svg>