<svg xmlns="http://www.w3.org/2000/svg" width="39.381" height="40"><g data-name="Сгруппировать 4"><g data-name="Без названия (9)" transform="translate(.46 2)" fill="#0068c6"><g data-name="Сгруппировать 7"><path data-name="Контур 14" d="M38.9 22.831V5.558a1.483 1.483 0 00-.025-.3.764.764 0 00-.882-.654.791.791 0 00-.564.954v16.456H1.471V6.103a4.181 4.181 0 013.946-4.386h29.264a.822.822 0 000-1.635H5.417C2.427.082 0 2.782 0 6.103v17.954c0 3.324 2.426 6.021 5.417 6.021h13.308v3.051h-6.911a.822.822 0 000 1.635h15.293a.822.822 0 000-1.635H20.2v-3.047h13.3c2.99 0 5.417-2.7 5.417-6.021v-1.2c-.025 0-.025-.027-.025-.027zm-5.417 5.612H5.417a4.181 4.181 0 01-3.946-4.386v-.409h35.955v.409a4.2 4.2 0 01-3.946 4.387z"/><path data-name="Контур 15" d="M15.196 14.032a.663.663 0 00-1.029 0 .852.852 0 000 1.144l4.779 5.308c.025.027.049.027.074.054a.512.512 0 00.147.109.524.524 0 00.27.054.8.8 0 00.27-.054.886.886 0 00.245-.191l4.8-5.285a.852.852 0 000-1.144.663.663 0 00-1.029 0l-3.529 3.923V8.196a.739.739 0 10-1.471 0v9.754z"/></g><ellipse data-name="Эллипс 1" cx="1.005" cy="1.117" rx="1.005" ry="1.117" transform="translate(36.887)"/></g></g></svg>