<svg xmlns="http://www.w3.org/2000/svg" width="39" height="40"><defs><clipPath id="a"><path data-name="Прямоугольник 22" transform="translate(-.46)" fill="#1facf0" d="M0 0h39v40H0z"/></clipPath></defs><g data-name="Сгруппировать 2"><g data-name="Группа масок 4" transform="translate(.46)" clip-path="url(#a)"><g data-name="Без названия (12)" fill="#0068c6"><path data-name="Контур 28" d="M19.537 13.809a4.836 4.836 0 104.638 4.832 4.743 4.743 0 00-4.638-4.832zm0 8.96a4.131 4.131 0 113.962-4.127 4.059 4.059 0 01-3.962 4.127z" stroke="#0068c6" stroke-width=".456"/><path data-name="Контур 29" d="M35.302 4.075h-2.81V2.906a2.523 2.523 0 00-2.6-2.542h-1.391a2.656 2.656 0 01-.017.808h1.4a1.734 1.734 0 011.832 1.737v1.083H7.356V2.906a1.734 1.734 0 011.836-1.742h15.447a2.644 2.644 0 01-.017-.808H9.192a2.523 2.523 0 00-2.608 2.545V4.07h-2.81A3.051 3.051 0 00.786 7.183v21.6a2.742 2.742 0 002.674 2.786h10.8l-2.146 7.463h-3.7a.4.4 0 000 .791h20.665a.4.4 0 000-.791h-3.681l-2.146-7.459h12.38a2.742 2.742 0 002.674-2.786V7.205a3.08 3.08 0 00-3.004-3.13zm-27.946.722h24.381v21.136H7.356zm-5.81 2.408a2.278 2.278 0 012.228-2.322H6.58v21.05H1.545zm23.046 31.832H12.919l2.146-7.463h7.362zm12.939-10.25a1.939 1.939 0 01-1.9 1.978H3.444a1.94 1.94 0 01-1.9-1.978v-2.029h35.987zm0-2.837h-5.039V4.884h2.81a2.26 2.26 0 012.212 2.3V25.95z" stroke="#0068c6" stroke-width=".456"/><path data-name="Контур 30" d="M26.587 1.376a.6.6 0 000-1.2h0a.6.6 0 00-.578.6.587.587 0 00.578.6z" stroke="#0068c6" stroke-width=".456"/><path data-name="Контур 31" d="M13.728 8.667h2.905a.4.4 0 000-.791h-2.905a.4.4 0 000 .791z" stroke="#0068c6" stroke-width=".456"/><path data-name="Контур 32" d="M23.796 10.938a.382.382 0 00-.38-.4h-9.672a.4.4 0 000 .791h9.673a.392.392 0 00.379-.391z" stroke="#0068c6" stroke-width=".456"/><path data-name="Контур 33" d="M20.937 18.607a1.528 1.528 0 00-.429-.258 7.06 7.06 0 00-.578-.206l-.2-.052v-.877a2.552 2.552 0 01.347.086 1.751 1.751 0 01.314.138l.231.12a.412.412 0 01.116.086l.446-.877c-.182-.1-.38-.206-.611-.31a2.745 2.745 0 00-.759-.189v-.653h-.446v.653a2.07 2.07 0 00-.561.138 1.36 1.36 0 00-.446.292 1.165 1.165 0 00-.3.447 1.394 1.394 0 00-.116.6 1.209 1.209 0 00.066.447.921.921 0 00.215.344 1.175 1.175 0 00.363.258c.149.069.33.138.528.206l.3.086v.86a1.748 1.748 0 01-.429-.1 3.676 3.676 0 01-.38-.155 2.141 2.141 0 01-.281-.155c-.066-.052-.116-.086-.132-.1l-.446.929a3.526 3.526 0 00.759.378 3.654 3.654 0 00.858.189v.757h.429v-.757a2.148 2.148 0 00.578-.1 1.188 1.188 0 00.479-.258 1.221 1.221 0 00.33-.43 1.442 1.442 0 00.132-.636 1.416 1.416 0 00-.1-.55 1.714 1.714 0 00-.277-.351zm-1.5-.6a1.008 1.008 0 01-.33-.172.372.372 0 01-.116-.258c0-.224.149-.344.429-.378v.808zm.3 1.995v-.774a1.113 1.113 0 01.347.172.331.331 0 01.132.258c-.001.204-.167.325-.479.342z"/></g></g></g></svg>