<svg xmlns="http://www.w3.org/2000/svg" width="39" height="40"><defs><clipPath id="a"><path data-name="Прямоугольник 22" transform="translate(-.46)" fill="#0068c6" d="M0 0h39v40H0z"/></clipPath></defs><g data-name="Сгруппировать 6"><g data-name="Группа масок 2" transform="translate(.46)" clip-path="url(#a)"><g data-name="Без названия (10)" transform="translate(4.78)" fill="#0068c6"><path data-name="Контур 16" d="M17.685.819a.8.8 0 00.766.8h9.609v36.846H1.533V1.617h9.609a.8.8 0 00.766-.8.9.9 0 00-.825-.8H.766a.8.8 0 00-.766.8v38.384a.8.8 0 00.766.8h28a.8.8 0 00.766-.8V.819a.8.8 0 00-.766-.8H18.451a.8.8 0 00-.766.8z"/><path data-name="Контур 17" d="M24.424 9.232H12.635a.8.8 0 000 1.6h11.79a.8.8 0 00.766-.8.841.841 0 00-.767-.8z"/><path data-name="Контур 18" d="M12.635 15.375h7.369a.8.8 0 000-1.6h-7.369a.8.8 0 000 1.6z"/><path data-name="Контур 19" d="M24.424 18.444H12.635a.8.8 0 000 1.6h11.79a.8.8 0 00.766-.8.841.841 0 00-.767-.8z"/><path data-name="Контур 20" d="M12.635 24.581h7.369a.8.8 0 000-1.6h-7.369a.8.8 0 000 1.6z"/><path data-name="Контур 21" d="M25.132 28.455a.8.8 0 00-.766-.8H12.574a.8.8 0 000 1.6h11.79a.894.894 0 00.768-.8z"/><path data-name="Контур 22" d="M12.635 32.262a.8.8 0 000 1.6h7.369a.8.8 0 000-1.6z"/><path data-name="Контур 23" d="M4.264 12.547a.726.726 0 00-1.061 0 .8.8 0 000 1.105l1.474 1.535a.862.862 0 00.531.246.707.707 0 00.531-.246l4.421-4.606a.8.8 0 000-1.105.726.726 0 00-1.061 0l-3.832 4.053z"/><path data-name="Контур 24" d="M9.451 18.689a.726.726 0 00-1.061 0L6.68 20.47l-1.71-1.781a.726.726 0 00-1.061 0 .8.8 0 000 1.105l1.71 1.781-1.709 1.778a.8.8 0 000 1.105.862.862 0 00.531.246.707.707 0 00.531-.246l1.71-1.781 1.71 1.781a.862.862 0 00.531.246.707.707 0 00.531-.246.8.8 0 000-1.105l-1.71-1.842 1.71-1.781a.727.727 0 00-.003-1.041z"/><path data-name="Контур 25" d="M9.451 27.902a.726.726 0 00-1.061 0l-1.71 1.781-1.71-1.781a.726.726 0 00-1.061 0 .8.8 0 000 1.105l1.71 1.781-1.71 1.781a.8.8 0 000 1.105.862.862 0 00.531.246.707.707 0 00.531-.246l1.71-1.781 1.71 1.781a.862.862 0 00.531.246.707.707 0 00.531-.246.8.8 0 000-1.105l-1.71-1.842 1.71-1.781a.727.727 0 00-.002-1.044z"/><ellipse data-name="Эллипс 2" cx=".865" cy=".901" rx=".865" ry=".901" transform="translate(13.892)"/></g></g></g></svg>