<svg xmlns="http://www.w3.org/2000/svg" width="39" height="40"><defs><clipPath id="a"><path data-name="Прямоугольник 22" transform="translate(-.461)" fill="#1facf0" d="M0 0h39v40H0z"/></clipPath></defs><g data-name="Сгруппировать 5"><g data-name="Группа масок 3" transform="translate(.461)" clip-path="url(#a)"><g data-name="Без названия (11)" transform="translate(.036)" fill="#0068c6"><path data-name="Контур 26" d="M18.223 22.306h9v-1.88h-8.08v-9.637h-1.846v10.577a.935.935 0 00.926.94z"/><path data-name="Контур 27" d="M.976 26.209a19.753 19.753 0 009.766 11.616A19.122 19.122 0 0025.726 39a19.588 19.588 0 0011.408-9.947 20.364 20.364 0 00.9-15.984 9.343 9.343 0 01-1.732.729 18.21 18.21 0 01-9.258 22.636 17.41 17.41 0 01-13.6.541 17.755 17.755 0 01-10-9.4 18.32 18.32 0 01-.528-13.85 17.827 17.827 0 019.235-10.178 18.862 18.862 0 0114.776-.259 8.183 8.183 0 01.785-1.716 21.5 21.5 0 00-8.057-1.575A19.481 19.481 0 002.134 10.93 20.278 20.278 0 00.976 26.209z"/><ellipse data-name="Эллипс 3" cx="1.616" cy="1.645" rx="1.616" ry="1.645" transform="translate(32.537 4.207)"/></g></g></g></svg>