<svg xmlns="http://www.w3.org/2000/svg" width="36" height="36"><path data-name="Прямоугольник 15" fill="#390" d="M0 0h36v36H0z"/><g data-name="Сгруппировать 14" fill="#fff"><path data-name="Контур 5" d="M23.07 7H12.92A5.938 5.938 0 007 12.92v10.15a5.938 5.938 0 005.92 5.92h10.15a5.938 5.938 0 005.92-5.92V12.92A5.993 5.993 0 0023.07 7zM18 24a6.005 6.005 0 116-6 6.028 6.028 0 01-6 6zm6.174-10.572a1.776 1.776 0 111.776-1.776 1.787 1.787 0 01-1.781 1.776z"/><path data-name="Контур 6" d="M17.991 13.491a4.5 4.5 0 104.5 4.5 4.5 4.5 0 00-4.5-4.5z"/><path data-name="Контур 7" d="M24.118 11.11a.594.594 0 10.593.594.638.638 0 00-.593-.594z"/></g></svg>