<svg xmlns="http://www.w3.org/2000/svg" width="36" height="36"><path data-name="Прямоугольник 16" fill="#390" d="M0 0h36v36H0z"/><g fill="#fff"><path data-name="Контур 2" d="M28.393 29.016v-8.372c0-4.142-.881-7.315-5.728-7.315a4.932 4.932 0 00-4.495 2.468h-.088v-2.115H13.5v15.334h4.759v-7.579c0-2.027.352-3.966 2.82-3.966s2.468 2.291 2.468 4.054v7.491z"/><path data-name="Контур 3" d="M8 13.654h4.759v15.334H8z"/><path data-name="Контур 4" d="M10.453 7A2.465 2.465 0 008 9.453a2.535 2.535 0 002.453 2.532 2.493 2.493 0 000-4.985z"/></g></svg>