<svg xmlns="http://www.w3.org/2000/svg" width="22.326" height="30"><g data-name="ERROR CHECK"><path data-name="Контур 105" d="M0 0v30h22.326V5.581h-5.582V0H0zm18.14.7v3.488h3.488zM8.885 6.183l1.068.894c-1.324 1.589-2.642 3.185-3.979 4.764L3.347 9.214l.981-.992 1.559 1.559zm2.627 2.889h7.674v1.4h-7.674zm-2.627 4.786l1.068.894c-1.324 1.589-2.642 3.185-3.979 4.764l-2.627-2.627.981-.992 1.559 1.559 3-3.6zm2.627 2.889h7.674v1.4h-7.674zm-2.627 4.786l1.068.894c-1.324 1.589-2.642 3.185-3.979 4.764l-2.627-2.627.981-.992 1.559 1.559 3-3.6zm2.627 2.889h7.674v1.4h-7.674z" fill="#fff"/></g></svg>