<svg xmlns="http://www.w3.org/2000/svg" width="30" height="30"><g data-name="DAILY AUTO UPDATE"><g data-name="Сгруппировать 44"><path data-name="Контур 24" d="M15 0a15 15 0 1015 15A15 15 0 0015 0zM6.969 20.97l-4.483-2 .714-1.601 1.655.737A10.63 10.63 0 017.5 7.5a10.511 10.511 0 016.081-3.012 10.685 10.685 0 016.539 1.22l-.849 1.539a8.916 8.916 0 00-5.456-1.017 8.768 8.768 0 00-5.072 2.513 8.868 8.868 0 00-2.2 8.865l.817-1.836 1.606.715zm18.176-9.075A10.63 10.63 0 0122.5 22.5a10.571 10.571 0 01-7.484 3.105 10.675 10.675 0 01-5.136-1.313l.849-1.539a8.914 8.914 0 005.456 1.017 8.768 8.768 0 005.072-2.513 8.868 8.868 0 002.2-8.865l-.817 1.836-1.606-.715 2-4.483 4.483 2-.717 1.601z" fill="#fff"/></g></g></svg>