<svg data-name="DATA IMPORT" xmlns="http://www.w3.org/2000/svg" width="30" height="30"><path data-name="Контур 15" d="M22.813 13.75H20.8a2.887 2.887 0 01-.487.388s0 1.387-.025 1.487h2.525a.309.309 0 01.313.313v7.812H6.875v-7.813a.309.309 0 01.313-.313h1.5a3.36 3.36 0 011-1.012v-.862h-2.5A2.2 2.2 0 005 15.937v8.75a2.2 2.2 0 002.188 2.188h4.637A5.183 5.183 0 0110.9 28.4a.938.938 0 00.663 1.6h6.875a.938.938 0 00.662-1.6 5.026 5.026 0 01-.925-1.525h4.638A2.2 2.2 0 0025 24.687v-8.75a2.2 2.2 0 00-2.187-2.187z" fill="#fff"/><path data-name="Контур 16" d="M30 12.412A7.5 7.5 0 0127.5 18v-2.062a4.689 4.689 0 00-4.687-4.687h-.937c0-1.716-1.007-2.42-2.575-3.988a3.5 3.5 0 00-4.85 0C13.1 8.6 12.412 9.074 12.05 10.187a3.391 3.391 0 00-1.55 1.063H7.188A4.689 4.689 0 002.5 15.938v2.687a6.3 6.3 0 01-2.5-5 6.4 6.4 0 015.75-6.338 9.522 9.522 0 0117.587-2.375 7.593 7.593 0 016.663 7.5z" fill="#fff"/><path data-name="Контур 17" d="M19.1 10.587l-1.562-1.562a.938.938 0 00-1.326 0l-1.563 1.562a.938.938 0 00.663 1.6h.625v3.125a.938.938 0 001.875 0v-3.125h.625a.937.937 0 00.663-1.6z" fill="#fff"/><path data-name="Контур 18" d="M14.688 16.562h-.625v-3.124a.938.938 0 00-1.875 0v3.125h-.625a.937.937 0 00-.663 1.6l1.562 1.563a.936.936 0 001.325 0l1.562-1.563a.937.937 0 00-.661-1.601z" fill="#fff"/></svg>