<svg version="1.1" id="Layer_1" xmlns="http://www.w3.org/2000/svg" x="0" y="0" viewBox="0 0 2328 426" xml:space="preserve"><style>.st0{fill:#390}.st1{fill:#0068c6}.st2{fill:#06a1d2}.st3{fill:#262c60}.st4{fill:#fff}</style><path class="st0" d="M225 285.7l2.4-3.6-32.1-23.5-2.5 4.6c-6.8 12.7-15.9 22.2-27.7 29.2-11.8 6.9-24.1 10.3-37.5 10.3-21.5 0-39.4-8-54.8-24.6-15.5-16.6-23.1-35.1-23.1-56.4 0-22.8 7.6-42.1 23.1-58.9 15.4-16.7 33.4-24.8 54.8-24.8 12.1 0 23.1 2.5 32.5 7.5 9.6 5 18.5 12.5 26.5 22.2l2.8 3.4 30.3-23.4-3-3.6c-11-13.4-23.7-23.7-37.7-30.7-15.6-7.9-32.9-11.9-51.4-11.9-31.5 0-59.2 12.1-82.4 35.9C21.2 161.9 9 190.3 9 221.6c0 31.2 12.2 59.2 36.3 83.3 23.1 23.2 50.8 34.9 82.3 34.9 20.2 0 39-4.9 55.7-14.6 16.7-9.7 30.7-22.9 41.7-39.5zm20.5 54.1V11.9h40.1v327.9h-40.1zm247.8-4.5v-101c-1.7-31-8.1-57.5-20.9-68.7-25.1-28.6-78.5-28.6-104 0-62.4 78.1 23.3 180.6 110.4 114.9l-16 50.6c-119.1 45.9-206.6-102-123.6-192 49.1-53.4 150.2-39.7 181.1 27.8 7.5 14.6 12.6 42.5 12.6 61.3l-.3 107h-39.3zm60 1.1V111.5h40.1v224.8h-40.1zm151.5-229c28.9.1 51.8 11.6 68.9 34.7 29.9-43.8 101.4-46.2 134.7-9 20.6 18.1 23.6 60 23.6 102.4 0 38.8-.1 100.9-.1 100.9h-39.7V200.3c-.6-30.4-19.6-54.3-49.7-54.1-30.3-.2-48.1 22.1-48.8 52.9v137.3H754V199.1c-.8-30-17.2-53.7-49.3-52.9-37.9.9-49.1 34.5-49.1 70.5l-.1 119.7h-39.7l-.2-100.5c.1-80 17.2-128.8 89.2-128.5z"/><path class="st1" d="M1124.4 342.6c-91.3 0-171.7-60.3-171.7-170.2S1033 2.6 1125.3 2.6c87.5 0 125.3 45.9 135.8 57.4l-51.2 44.5c-13.9-15.3-39.7-37.8-84.6-37.8-53.1 0-94.2 38.7-94.2 105.7 0 66.9 42.1 105.7 95.6 105.7 53.6 0 68.9-21 68.9-21v-48.8h-69.3v-58.8h144.9v136.8c-16.8 14.7-56 56.3-146.8 56.3zm167.6-6.2V7.1h213.3v61.6h-136.5V136h128.9v61.6h-128.9V274h140.8v62.5H1292z"/><path class="st2" d="M2074.3 417.6c-3.6.1-7.2-.3-10.7-1.6-1.6-.6-3.1-1.3-4.1-2.8-1.3-1.8-1.5-3.9-.2-5.7 1.2-1.7 3.1-1.9 5-1.1 4.6 1.9 9.2 2.9 14.1 1.8 3.3-.7 5.4-2.7 5.9-5.6.5-3.2-.6-5.6-3.8-7.4-1.5-.9-3.2-1.5-4.8-2.2-2.9-1.2-5.9-2.2-8.8-3.5-5.6-2.7-8.7-7.1-8.7-13.4 0-6.5 2.8-11.5 8.7-14.4 6.9-3.3 14.2-3.4 21.4-1 1.5.5 2.9 1.2 4 2.5 1.5 1.7 1.9 3.7.6 5.7-1.2 1.9-3.2 2.2-5.2 1.4-3.8-1.6-7.6-2.4-11.7-1.9-3.6.5-5.8 2.3-6.3 5.3-.5 2.8.9 5.2 4.2 6.8 4.4 2.2 9.3 3.2 13.6 5.6 10.5 5.7 11.2 20.9 1.4 27.7-3.6 2.4-7.6 3.5-11.8 3.8-.8.1-1.8 0-2.8 0z"/><path class="st3" d="M2233.7 385.1c3.7-3 7.5-4.2 11.9-3.3 5.1 1 8.4 4 9.2 9.2 1 6.9.4 13.9.3 20.9 0 2.2-2 3.4-4.7 3.2-2.3-.2-4-1.1-4-3.7-.1-4.6 0-9.1 0-13.7v-2.5c-.2-4.4-2.3-6.6-5.9-6.5-3.9.1-6.7 3.1-6.7 7v15c0 3.1-1.4 4.4-4.4 4.4-3 0-4.4-1.3-4.4-4.4v-39c0-3 1.5-4.4 4.5-4.4s4.3 1.4 4.4 4.5c-.1 4.2-.2 8.5-.2 13.3zm-59.6 15.2c-2.4 0-4.8.1-7.2 0-1.8-.1-2 .7-1.5 2.2 1 3.7 3.9 5.9 8.3 6.2 2.4.1 4.6-.4 6.8-1.1 1.7-.5 3.3-.5 4 1.2.8 1.9 0 3.5-1.7 4.5-4.2 2.4-8.9 2.7-13.5 2-7.4-1.1-11.8-5.8-12.8-13.4-1.3-10.1 4-18.4 12.8-20.2 9.8-1.9 17.2 4.1 17 13.9-.1 3.1-1.5 4.6-4.6 4.7h-7.6zm-2.7-5.6h5c1.3.1 1.6-.5 1.3-1.7-.6-2.9-2.5-4.9-5-5.3-2.6-.4-5.2 1-6.6 3.6-1.6 3-1.4 3.4 1.9 3.4h3.4zm-37 .6c0-4.9-.1-9.9.1-14.8.1-2.3-.7-2.8-2.8-2.7-2.3.2-4.6 0-7 0-2.5 0-3.6-1.4-3.6-3.7 0-2.3 1-3.6 3.6-3.6h28.2c2.4 0 3.6 1.1 3.8 3.5.1 2.5-1.1 3.7-3.7 3.8-2.3.1-4.7.2-7 0-2-.2-2.7.4-2.7 2.6.1 9.9.1 19.9.1 29.8 0 3.7-1.6 5.1-5.1 4.8-2.6-.2-3.8-1.5-3.8-4.2 0-5.1-.1-10.3-.1-15.5z"/><path d="M1813.1 408.9c2.3-7.2 4.3-13.5 6.3-19.9.5-1.7 1.2-2.3 3-2.3 1.9 0 2.3.8 2.7 2.3 1.9 6.3 3.8 12.6 5.8 18.9 1 0 .7-.9.9-1.4 1.7-5.9 3.3-11.8 4.9-17.7.5-1.7 3.8-2.9 5.1-1.9.7.5.2 1 0 1.5-2.6 8.2-5.3 16.4-7.9 24.6-.6 1.9-1.9 1.2-3.1 1.4-1.4.2-2.2-.2-2.6-1.7-1.9-6.4-4-12.7-6.2-19.7-1.1 3.4-1.9 6.4-2.9 9.3-1.1 3.4-2.5 6.8-3.4 10.3-.6 2.2-2 1.6-3.4 1.8-1.7.2-2.1-.7-2.6-2.1-2.3-7.7-4.6-15.3-6.9-22.9-.2-.8-1.4-2.3.1-2.4 1.5-.1 3.9-1.5 4.6 1.3 1.5 5.7 3 11.5 4.5 17.2.4.9.7 1.8 1.1 3.4zm158.2-18.2c2.4-2.4 4.4-3.8 6.9-4.3 6-1.1 10.9 1.6 13.1 7.3 1.6 4.1 1.5 8.4.2 12.6-2.5 8.3-13.2 12.5-20.4 4.7-.9.3-.6 1.1-.6 1.6.1 2.5-1.7 1.6-2.9 1.7-1.7.3-1.6-.8-1.6-2 .1-12 .1-24 0-36 0-2.3.8-2.5 2.7-2.5 1.9 0 2.6.5 2.5 2.5-.1 4.6.1 9.1.1 14.4zm-.1 9.9v2.5c.2 4.1 2.8 7.3 6.5 7.8 3.9.6 7.3-1.4 8.7-5.3 1.2-3.5 1.3-7.1-.3-10.6-1.5-3.4-4.3-5.1-7.7-4.8-3.3.3-6 2.6-6.9 5.9-.3 1.5-.3 3-.3 4.5zm-29.9 9.6c-2.2 2.5-4.2 4.1-6.8 4.6-6 1.3-11.4-1.9-13.5-8-1.5-4.3-1.3-8.6.3-12.8 2.4-6.5 11-11.4 19.6-4.5v-12.9c0-2.4 2.3-3.8 4.6-2.7.8.4.6 1.1.6 1.7 0 12.4 0 24.9.1 37.3 0 1.7-.9 1.6-1.9 1.5-1-.1-2.6.8-2.6-1.4-.3-.6-.3-1.3-.4-2.8zm-.4-9.6c-.1-1.5-.1-3-.4-4.4-.6-3.1-3-5.4-6-5.8-3.3-.5-6 .6-7.6 3.5-2.5 4.4-2.6 9.1-.2 13.5 1.6 2.9 4.3 4 7.5 3.6 3.1-.4 5.1-2.4 6.1-5.4.7-1.7.5-3.3.6-5z"/><path class="st3" d="M2192.1 399.6c.1-12.8 9.7-20.8 21.1-17.6 1.1.3 2.1.7 3 1.4 1.5 1.2 1.8 2.9 1 4.5-.8 1.7-2.4 1.8-4.1 1.3-5.5-1.6-8.1-1-10.4 2.4-2.6 3.9-2.5 10.6.2 14 2.6 3.1 6 3.5 9.6 2.5 1.9-.5 3.9-1.7 4.9 1.1.8 2.5-.7 4-2.8 5-10.8 5.2-22.6-2.4-22.5-14.6z"/><path d="M1745.6 395.6v-17.2c0-1.5.4-2.1 2-2.2 4.5-.4 9.1-.9 13.5.2s7.5 3.8 8.1 8.4c.7 4.9-.5 9.2-4.9 12.1-3.4 2.2-7.3 2.7-11.2 2.4-2-.2-2.5.4-2.4 2.4.2 3.5-.1 7.1.1 10.6.1 2.3-1.1 2.2-2.7 2.2-1.5 0-2.6 0-2.5-2.1.1-5.6 0-11.2 0-16.8zm5-8.2v2.8c0 5.5.3 5.7 5.8 5.1.3 0 .6-.1.8-.1 4.2-.8 6.6-3.1 7-6.9.6-5.4-2.6-8.5-8.7-8.6-4.9-.1-4.9-.1-4.9 4.7v3z"/><path class="st2" d="M2051.8 399.1v13.3c0 3.3-1.8 4.7-5.7 4.8-4 0-5.8-1.4-5.8-4.7v-27.2c0-3.2 1.9-4.7 5.9-4.7 3.8 0 5.7 1.6 5.7 4.9 0 4.5 0 9.1-.1 13.6.1 0 .1 0 0 0zm62.1-.1v13.6c0 3.2-1.7 4.5-5.6 4.6-3.9 0-5.8-1.2-5.8-4.4-.1-9.2-.1-18.4-.1-27.6 0-3.3 1.9-4.6 6-4.6 3.9 0 5.5 1.4 5.6 4.6-.1 4.7-.1 9.2-.1 13.8z"/><path d="M1997.5 422.3c2.9-1.3 5-3.5 6.6-6.2 1-1.7 1-3.2.2-5-3-7.4-5.9-14.8-9-22.2-.8-1.9-.3-2 1.5-2.2 2.5-.2 3.7.6 4.5 3.1 1.9 6 4.3 11.8 6.6 18.3 2.2-6.6 4.3-12.8 6.4-18.9.7-2.1 3.5-3.3 5.4-2.4.8.4.5.9.3 1.4-4.2 10.3-7.2 21.1-12.6 30.9-1.8 3.3-4.5 5.9-8.1 7.4m-199.9-25.7c-.1 8.7-5.7 14.5-14 14.4-7.9-.1-13.2-6-13.1-14.6.2-8.8 5.7-14.4 14-14.3 8 0 13.2 5.8 13.1 14.5zm-5.2.3c0-2.4-.4-4.4-1.2-6.1-1.4-3-3.6-4.9-7.1-4.9-3.4 0-5.8 1.8-7.2 4.8-1.3 2.7-1.5 5.5-1 8.4.8 4.8 4.2 8.1 8.2 8 3.9 0 7.1-3.1 8-7.9.2-1 .2-1.9.3-2.3zm65.1.5h-8.1c-1.4 0-1.7.6-1.5 1.9.5 4.1 3.6 7.1 7.8 7.5 2.6.2 5.2.1 7.7-.8.9-.3 1.6-.5 1.8.8.1 1 1.1 2-.5 2.8-6.1 3.2-16.2 1-19.7-4.5-3.9-6.3-2.3-16.5 3.4-20.8 3.7-2.8 9.6-3.1 13.4-.8 3.6 2.2 6.2 8.4 5.4 12.7-.2 1.2-.9 1.2-1.7 1.2h-8zm-2.3-3.6c1.8 0 3.5-.1 5.3 0 1.7.1 2.1-.5 1.8-2.1-.6-3.8-3.4-6.2-7.1-6.1-3.5.2-7 3.6-7.2 7-.1 1.2.6 1.1 1.4 1.2h5.8zm48.9 3.6c-2.6 0-5.2.1-7.8 0-1.6-.1-1.9.6-1.7 2 .5 4 3.6 7 7.8 7.4 2.6.2 5.2.1 7.7-.8.9-.3 1.7-.4 1.8.8.1 1 1.2 2-.5 2.8-6 3.1-15.8 1.1-19.3-4-4-5.7-3-15.6 2-20.3 3.6-3.4 9.7-4.3 14-2.1 4 2.1 6.7 8.1 6 12.9-.2 1.4-1 1.3-1.9 1.3h-8.1zm-2.4-3.6c1.9 0 3.7-.1 5.6 0 1.6.1 1.9-.5 1.7-2-.5-3.4-2.7-5.8-5.9-6.2-3.4-.4-6.3 1.4-7.8 5-1.2 2.9-1 3.1 2 3.1 1.5.1 3 .1 4.4.1zm-23.5-6.8c1.6-2.3 3.3-4.5 6.2-4.7 1-.1 2.7-1 2.7 1.1 0 1.4 1.3 3.6-2 3.6-3.9.1-6.4 3.4-6.6 8.3-.1 4.1 0 8.2 0 12.3 0 2.8-1.3 3.7-4.1 3-1-.3-.9-1-.9-1.7 0-8.2 0-16.3-.2-24.5 0-1.6.8-1.7 1.9-1.5 1 .2 2.6-.8 2.6 1.4 0 .6-.2 1.6.4 2.7z"/><path class="st2" d="M2053.1 367.1c0 4-3.2 7.2-7.3 7.1-3.9-.1-7-3.3-7.1-7.1 0-3.9 3.2-7.2 7.2-7.3 4 0 7.2 3.2 7.2 7.3zm54.9 7c-4.1-.1-7.2-3.3-7.1-7.4.1-3.9 3.3-7 7.2-7 4 0 7.2 3.4 7.1 7.4 0 4-3.3 7.1-7.2 7z"/><path class="st1" d="M1744.4 336.5l-144.6-223.4s1.4 39.6 1.4 74.5v148.9h-75.4V7.1h82.6l141.3 221.5s-1.4-37.2-1.4-72.1V7.1h75.4v329.4h-79.3zm99.5 0V7.1h77v329.4h-77z"/><path transform="rotate(-90 2193.278 173.204)" class="st1" d="M2178.3 158.2h30v30h-30z"/><path transform="rotate(-90 2223.229 143.253)" class="st0" d="M2208.3 128.3h30v30h-30z"/><path transform="rotate(-90 2253.179 293.005)" class="st1" d="M2238.2 278h30v30h-30z"/><path transform="rotate(-90 2253.179 233.105)" class="st1" d="M2238.2 218.1h30v30h-30z"/><path transform="rotate(-90 2253.179 83.353)" class="st1" d="M2238.2 68.4h30v30h-30z"/><path transform="rotate(-90 2283.13 173.204)" class="st1" d="M2268.2 158.2h30v30h-30z"/><path transform="rotate(-90 2313.08 263.055)" class="st0" d="M2298.1 248.1h30v30h-30z"/><path transform="rotate(-90 2313.08 143.592)" class="st0" d="M2298.1 128.6h30v30h-30z"/><path transform="rotate(-90 2313.08 83.353)" class="st1" d="M2298.1 68.4h30v30h-30z"/><path class="st1" d="M2209.4 265.5l-31.3-48.9-32.6-51L2248.1 7.1h-91.7l-61.6 108.4-61.5-108.4h-91.7l102.2 158.5-109.3 170.9h92.1l68.3-122.7 67.8 122.7h92.1l-45.4-71z"/><path transform="rotate(-90 2283.13 23.452)" class="st0" d="M2268.2 8.5h30v30h-30z"/><path transform="rotate(-90 573.485 51.447)" class="st0" d="M553.5 31.4h40v40h-40z"/><path transform="rotate(-90 2283.13 322.956)" class="st0" d="M2268.2 308h30v30h-30z"/><path transform="rotate(-90 1883.357 112.177)" class="st4" d="M1868.4 97.2h30v30h-30z"/><path transform="rotate(-90 1900.092 313.69)" class="st4" d="M1885.1 298.7h30v30h-30z"/><path transform="rotate(-90 1875.864 228.46)" class="st4" d="M1860.9 213.5h30v30h-30z"/><path transform="rotate(-90 1864.85 32.454)" class="st4" d="M1849.9 17.5h30v30h-30z"/><path transform="rotate(-90 1905.814 198.293)" class="st4" d="M1890.8 183.3h30v30h-30z"/><path transform="rotate(-90 1580.59 191.364)" class="st4" d="M1565.6 176.4h30v30h-30z"/><path transform="rotate(-90 1580.59 272.405)" class="st4" d="M1565.6 257.4h30v30h-30z"/><path transform="rotate(-90 1546.234 109.892)" class="st4" d="M1531.3 94.9h30v30h-30z"/><path transform="rotate(-90 1550.64 302.572)" class="st4" d="M1535.7 287.6h30v30h-30z"/><path transform="rotate(-90 1645.803 130.794)" class="st4" d="M1630.8 115.8h30v30h-30z"/><path transform="rotate(-90 1753.058 272.621)" class="st4" d="M1738.1 257.6h30v30h-30z"/><path transform="rotate(-90 1695.792 200.607)" class="st4" d="M1680.8 185.6h30v30h-30z"/><path transform="rotate(-90 1771.996 178.15)" class="st4" d="M1757 163.2h30v30h-30z"/><path transform="rotate(-90 1801.946 148.537)" class="st4" d="M1787 133.6h30v30h-30z"/><path transform="rotate(-90 1797.541 66.272)" class="st4" d="M1782.6 51.3h30v30h-30z"/><path transform="rotate(-90 1781.907 302.572)" class="st4" d="M1766.9 287.6h30v30h-30z"/><path transform="rotate(-90 1984.326 307.862)" class="st4" d="M1969.4 292.9h30v30h-30z"/><path transform="rotate(-90 2033.884 263.38)" class="st4" d="M2018.9 248.4h30v30h-30z"/><path transform="rotate(-90 2051.504 98.21)" class="st4" d="M2036.5 83.2h30v30h-30z"/><path transform="rotate(-90 2068.24 189.162)" class="st4" d="M2053.3 174.2h30v30h-30z"/><path transform="rotate(-90 2098.19 159.55)" class="st4" d="M2083.2 144.6h30v30h-30z"/><path transform="rotate(-90 1998.859 38.309)" class="st4" d="M1983.9 23.3h30v30h-30z"/><path transform="rotate(-90 2144.61 107.768)" class="st4" d="M2129.6 92.8h30v30h-30z"/><path transform="rotate(-90 2197.975 308.086)" class="st4" d="M2183 293.1h30v30h-30z"/><path transform="rotate(-90 2146.43 228.794)" class="st4" d="M2131.5 213.8h30v30h-30z"/><path transform="rotate(-90 2189.832 41.743)" class="st4" d="M2174.9 26.8h30v30h-30z"/><path transform="rotate(-90 1593.226 47.27)" class="st4" d="M1578.3 32.3h30v30h-30z"/></svg>