<svg version="1.1" id="Слой_1" xmlns="http://www.w3.org/2000/svg" x="0" y="0" viewBox="0 0 1920 280" xml:space="preserve"><style>.st0{fill:#fff}</style><path transform="rotate(-90 1799.734 139.584)" class="st0" d="M1787.4 127.3h24.7V152h-24.7z"/><path transform="rotate(-90 1824.398 114.92)" class="st0" d="M1812.1 102.6h24.7v24.7h-24.7z"/><path transform="rotate(-90 1849.063 238.242)" class="st0" d="M1836.7 225.9h24.7v24.7h-24.7z"/><path transform="rotate(-90 1849.063 188.913)" class="st0" d="M1836.7 176.6h24.7v24.7h-24.7z"/><path transform="rotate(-90 1849.063 65.591)" class="st0" d="M1836.7 53.3h24.7V78h-24.7z"/><path transform="rotate(-90 1873.727 139.584)" class="st0" d="M1861.4 127.3h24.7V152h-24.7z"/><path transform="rotate(-90 1898.392 213.578)" class="st0" d="M1886.1 201.2h24.7v24.7h-24.7z"/><path transform="rotate(-90 1898.392 115.199)" class="st0" d="M1886.1 102.9h24.7v24.7h-24.7z"/><path transform="rotate(-90 1898.392 65.591)" class="st0" d="M1886.1 53.3h24.7V78h-24.7z"/><path transform="rotate(-90 1873.727 16.262)" class="st0" d="M1861.4 3.9h24.7v24.7h-24.7z"/><path transform="rotate(-90 1873.727 262.906)" class="st0" d="M1861.4 250.6h24.7v24.7h-24.7z"/><path class="st0" d="M178.8 233.2l2-3-26.4-19.4-2 3.8c-5.6 10.5-13.1 18.3-22.8 24-9.7 5.7-19.8 8.5-30.9 8.5-17.7 0-32.4-6.6-45.2-20.2-12.8-13.7-19-28.9-19-46.5 0-18.8 6.2-34.7 19-48.5 12.7-13.8 27.5-20.5 45.1-20.5 10 0 19 2.1 26.8 6.2 7.9 4.1 15.2 10.3 21.8 18.3l2.3 2.8 25-19.3-2.5-3c-9.1-11-19.5-19.5-31.1-25.3-12.8-6.5-27.1-9.8-42.3-9.8-25.9 0-48.8 9.9-67.8 29.5C11 131.2 1 154.6 1 180.4c0 25.7 10 48.7 29.9 68.6 19.1 19.1 41.9 28.7 67.8 28.7 16.6 0 32.1-4.1 45.9-12 13.6-8 25.2-18.9 34.2-32.5zm17 44.5V7.7h33.1v270h-33.1zm204-3.7v-83.2c-1.4-25.5-6.7-47.4-17.2-56.6-20.7-23.6-64.7-23.5-85.6 0-51.4 64.3 19.2 148.7 90.9 94.6l-13.1 41.7c-98.1 37.8-170.1-84-101.8-158.1 40.5-44 123.7-32.7 149.1 22.9 6.2 12 10.4 35 10.4 50.5l-.3 88.1h-32.4zm49.4.9V89.7h33.1v185.2h-33.1zM573.9 86.4c23.8.1 42.7 9.5 56.7 28.5 24.6-36 83.5-38 111-7.4 17 14.9 19.4 49.4 19.4 84.3 0 31.9-.1 83.1-.1 83.1h-32.7V162.8c-.5-25-16.1-44.7-40.9-44.6-25-.2-39.6 18.2-40.2 43.6v113h-32.7v-113c-.7-24.7-14.2-44.2-40.6-43.6-31.2.8-40.5 28.4-40.5 58.1l-.1 98.6h-32.7l-.2-82.8c.2-65.8 14.4-106 73.6-105.7zM919.5 280c-75.2 0-141.4-49.6-141.4-140.2S844.3 0 920.3 0c72.1 0 103.2 37.8 111.8 47.3L990 83.9c-11.4-12.6-32.7-31.1-69.7-31.1-43.7 0-77.6 31.9-77.6 87s34.7 87 78.8 87c44.1 0 56.7-17.3 56.7-17.3v-40.2h-57.1v-48.4h119.3v112.6c-13.8 12.2-46.1 46.5-120.9 46.5zm138-5.1V3.7h175.7v50.7h-112.4v55.4h106.1v50.7h-106.1v62.9h115.9v51.5h-179.2zm372.6.1L1311 91s1.2 32.6 1.2 61.3V275H1250V3.7h68l116.4 182.4s-1.2-30.7-1.2-59.4V3.7h62.1V275h-65.2zm82 0V3.7h63.4V275h-63.4zm300.9-58.5l-25.8-40.3-26.9-42 84.5-130.5h-75.5L1718.7 93 1668 3.7h-75.5l84.1 130.5-90 140.7h75.9l56.2-101 55.8 101h75.9l-37.4-58.4z"/><path transform="rotate(-90 465.82 40.25)" class="st0" d="M449.3 23.8h33v33h-33z"/></svg>