<svg xmlns="http://www.w3.org/2000/svg" viewBox="0 0 160 160"><path d="M159.9 78.4h-51.8c.1 1.1.2 2.2.2 3.3 0 15.5-12.7 28.2-28.3 28.2S51.7 97.3 51.7 81.7 64.4 53.5 80 53.5c7.4 0 14.1 2.8 19.1 7.4l8.5-8c-7.2-6.8-16.9-11-27.6-11-21 0-38.1 16.1-39.8 36.5H11.8c.9-36.7 31.1-66.3 68.2-66.3 18.9 0 36.1 7.7 48.4 20.1l8.8-7.7C122.7 9.7 102.4.5 80 .5 35.9.5.1 36.1.1 80.1s35.8 79.6 79.9 79.6 79.9-35.6 79.9-79.6v-1.7zM80 148.1c-34.3 0-62.7-25.3-67.5-58h28.4c3.8 18 19.9 31.5 39.1 31.5S115.3 108 119.1 90h28.4c-4.8 32.8-33.2 58.1-67.5 58.1z" fill="#fff"/></svg>