<svg xmlns="http://www.w3.org/2000/svg" width="40" height="40"><g data-name="down-arrow (1)"><g data-name="Group 13" transform="rotate(-90 22 6)" fill="#666"><path data-name="Path 12" d="M14.76.752l-.491-.5a.813.813 0 00-1.161 0l-5.6 5.694-5.611-5.7a.814.814 0 00-1.16 0l-.491.5a.844.844 0 000 1.179l6.681 6.811a.833.833 0 00.582.267.833.833 0 00.58-.267l6.675-6.793a.849.849 0 00.24-.6.84.84 0 00-.244-.591z"/><rect data-name="Rectangle 24" width="2.5" height="15" rx=".5" transform="rotate(90 2.5 12.5)"/></g></g></svg>