<svg xmlns="http://www.w3.org/2000/svg" width="13.001" height="13.16" viewBox="0 0 26.001 20.16"><g data-name="Без названия (11)" fill="#390"><path data-name="Контур 97" d="M18.761 7.2c0-4-4.19-7.2-9.36-7.2s-9.4 3.22-9.4 7.2a6.08 6.08 0 001.71 4.14 10 10 0 01-1.61 2.45.36.36 0 00.26.61 7.82 7.82 0 004-1.13 11.43 11.43 0 005 1.13c5.21 0 9.4-3.22 9.4-7.2z"/><path data-name="Контур 98" d="M24.251 17.08a6.08 6.08 0 001.75-4.12c0-3-2.41-5.59-5.82-6.66a6.58 6.58 0 01.06.9c0 4.77-4.85 8.64-10.8 8.64a13.39 13.39 0 01-1.44-.09c1.42 2.59 4.75 4.41 8.63 4.41a11.29 11.29 0 005-1.13 7.82 7.82 0 004 1.13.37.37 0 00.33-.22.36.36 0 00-.07-.39 10 10 0 01-1.64-2.47z"/></g></svg>