<svg data-name="FLEXIBLE IMPLEMENTATION" xmlns="http://www.w3.org/2000/svg" width="50" height="50"><path data-name="Контур 420" d="M0 0h50v50H0z" fill="none"/><path data-name="Контур 421" d="M41.667 37.5a4.161 4.161 0 004.146-4.167l.021-22.917a4.179 4.179 0 00-4.167-4.166H8.333a4.179 4.179 0 00-4.166 4.167v22.916A4.179 4.179 0 008.333 37.5H0a4.179 4.179 0 004.167 4.167h41.666A4.179 4.179 0 0050 37.5zM8.333 10.417h33.334v22.916H8.333zM25 39.583a2.083 2.083 0 112.083-2.083A2.089 2.089 0 0125 39.583z" fill="#666"/></svg>