<svg data-name="EASY-TO-USE CLIENT" xmlns="http://www.w3.org/2000/svg" width="50" height="50"><path data-name="Контур 418" d="M0 0h50v50H0z" fill="none"/><path data-name="Контур 419" d="M40.479 27.042A16.235 16.235 0 0040.625 25a16.236 16.236 0 00-.146-2.042l4.4-3.437a1.051 1.051 0 00.25-1.333L40.96 10.98a1.041 1.041 0 00-.917-.521.973.973 0 00-.354.063L34.5 12.605a15.221 15.221 0 00-3.521-2.038l-.792-5.521a1.016 1.016 0 00-1.02-.879h-8.334a1.016 1.016 0 00-1.021.875l-.791 5.525a16.006 16.006 0 00-3.521 2.042l-5.187-2.088a1.18 1.18 0 00-.375-.062 1.032 1.032 0 00-.9.521l-4.163 7.208a1.027 1.027 0 00.25 1.333l4.4 3.438a16.522 16.522 0 00-.146 2.042 16.522 16.522 0 00.146 2.042l-4.4 3.438a1.051 1.051 0 00-.25 1.333l4.167 7.208a1.041 1.041 0 00.917.521.973.973 0 00.354-.062l5.188-2.083a15.221 15.221 0 003.521 2.042l.792 5.521a1.016 1.016 0 001.021.875h8.333a1.016 1.016 0 001.021-.875l.792-5.521a16.006 16.006 0 003.521-2.042l5.188 2.083a1.18 1.18 0 00.375.063 1.032 1.032 0 00.9-.521l4.167-7.208a1.051 1.051 0 00-.25-1.333zm-4.125-3.562a11.131 11.131 0 01.1 1.521c0 .438-.042.9-.1 1.521l-.294 2.353 1.854 1.458 2.25 1.75-1.458 2.521-2.646-1.062-2.164-.875-1.875 1.417a12.2 12.2 0 01-2.6 1.521l-2.208.9-.333 2.354-.42 2.808h-2.918l-.4-2.812-.333-2.354-2.208-.9a11.821 11.821 0 01-2.562-1.479l-1.9-1.458-2.208.9-2.639 1.061-1.459-2.52 2.25-1.75 1.854-1.458-.292-2.354c-.063-.646-.1-1.125-.1-1.542s.042-.9.1-1.521l.292-2.354-1.854-1.459-2.25-1.75 1.458-2.521 2.646 1.063 2.167.875 1.875-1.417a12.2 12.2 0 012.6-1.521l2.208-.9.333-2.354.417-2.812h2.9l.4 2.813.333 2.354 2.208.9a11.82 11.82 0 012.562 1.479l1.9 1.458 2.208-.9 2.646-1.062 1.458 2.521-2.235 1.774-1.857 1.458.292 2.354zM25 16.667A8.333 8.333 0 1033.333 25 8.331 8.331 0 0025 16.667zm0 12.5A4.167 4.167 0 1129.167 25 4.179 4.179 0 0125 29.167z" fill="#666"/></svg>