<svg xmlns="http://www.w3.org/2000/svg" width="50" height="50"><g data-name="Сгруппировать 1047" fill="none"><path data-name="Контур 415" d="M0 0h50v50H0z"/><path data-name="Контур 416" d="M0 0h50v50H0z" opacity=".87"/></g><path data-name="Контур 417" d="M37.5 16.666h-2.084V12.5a10.417 10.417 0 10-20.833 0v4.167H12.5a4.179 4.179 0 00-4.167 4.166v20.833a4.179 4.179 0 004.167 4.167h25a4.179 4.179 0 004.167-4.167V20.833a4.179 4.179 0 00-4.167-4.167zm-18.75-4.167a6.25 6.25 0 1112.5 0v4.167h-12.5zM37.5 41.666h-25V20.833h25zM25 35.416a4.167 4.167 0 10-4.167-4.166A4.179 4.179 0 0025 35.416z" fill="#666"/></svg>