<svg data-name="PREMIUM SUPPORT" xmlns="http://www.w3.org/2000/svg" width="50" height="50"><path data-name="Контур 412" d="M0 0h50v50H0z" fill="none"/><path data-name="Контур 413" d="M13.792 22.479a31.56 31.56 0 0013.729 13.729l4.583-4.583a2.071 2.071 0 012.125-.5 23.765 23.765 0 007.438 1.187 2.089 2.089 0 012.083 2.084v7.271a2.089 2.089 0 01-2.083 2.083A35.414 35.414 0 016.25 8.333 2.089 2.089 0 018.333 6.25h7.292a2.089 2.089 0 012.083 2.083 23.667 23.667 0 001.188 7.437 2.091 2.091 0 01-.521 2.125z" fill="#666"/></svg>