<svg data-name="OVER 8,000 PAYERS" xmlns="http://www.w3.org/2000/svg" width="50" height="50"><g data-name="Сгруппировать 1045"><path data-name="Прямоугольник 452" fill="none" d="M0 0h50v50H0z"/></g><g data-name="Сгруппировать 1046"><path data-name="Контур 414" d="M25 4.167A20.833 20.833 0 1045.834 25 20.841 20.841 0 0025 4.167zm0 37.5A16.667 16.667 0 1141.667 25 16.689 16.689 0 0125 41.667zm1.854-18.542c-3.708-1.229-5.5-2-5.5-3.958 0-2.125 2.312-2.9 3.771-2.9a4.025 4.025 0 013.959 2.8l3.292-1.4a7.136 7.136 0 00-5.542-4.646v-2.604h-3.646v2.625a6.425 6.425 0 00-5.458 6.167c0 4.729 4.688 6.062 6.979 6.9 3.292 1.167 4.75 2.229 4.75 4.229 0 2.354-2.187 3.354-4.125 3.354-3.792 0-4.875-3.9-5-4.354l-3.458 1.4a8.41 8.41 0 006.291 6.158v2.688h3.646V37c1.083-.187 6.292-1.229 6.292-6.708.02-2.896-1.25-5.437-6.25-7.167z" fill="#666"/></g></svg>