<svg xmlns="http://www.w3.org/2000/svg" width="30" height="28.618"><g data-name="star (1)"><g data-name="Сгруппировать 64"><path data-name="Контур 18" d="M29.957 10.867a.879.879 0 00-.709-.6l-9.3-1.351L15.789.489a.879.879 0 00-1.576 0l-4.159 8.427-9.3 1.351a.879.879 0 00-.487 1.5l6.729 6.56-1.589 9.263a.879.879 0 001.275.926L15 24.144l8.318 4.373a.879.879 0 001.275-.927L23 18.328l6.73-6.56a.879.879 0 00.227-.901zm-8.51 6.525a.879.879 0 00-.253.778l1.366 7.963-7.151-3.759a.879.879 0 00-.818 0L7.44 26.132l1.365-7.963a.879.879 0 00-.253-.778l-5.784-5.639 7.995-1.162a.879.879 0 00.662-.481L15 2.865l3.576 7.241a.879.879 0 00.662.481l7.995 1.162z" fill="#390"/></g></g></svg>