<svg xmlns="http://www.w3.org/2000/svg" width="30" height="30"><path data-name="AVAILABLE STATES" d="M2.215 6v.671l-1.141-.336.5 1.51-1.04 2.013v.839l-.537.906.537 2.886v1.946l1.681 1.075v.57l1.644.335 1.711 1.309 2.081.3 1.107-.369 1.611 2.181.671-.5 1.04.235 1.275 2.349.94.4v-1.24l2.047-1.443 2.651.2v-.772l3.859-.034 1.879 2.852.638.1v-1.242l-1.107-2.282.3-1.51 1.812-1.913v-1.309l-.906-1.141.57-.335.571.537.7-2.248 1.544-1.275-.268-1.275 1.409-1.309-.839-1.51-.738.235-.436 1.376-1.778.671-.6 1.208-1.275.369-1.309 1.611-.805-.1.034-1.376-1.007-1.275-.906.638v1.852l-.335.369-.57-.7.134-1.611 1.309-.94-1.913-.436-.638.268h-1.141l1.04-1.007-2.416-.436-4.4-.2-5.872-.772z" fill="#fff"/></svg>