<svg data-name="SUPPORTED PAYERS" xmlns="http://www.w3.org/2000/svg" width="30" height="30"><path data-name="Контур 424" d="M0 0h30v30H0zm12.5 6.25h5v2.5h-5zm0 0h5v2.5h-5z" fill="none"/><path data-name="Контур 425" d="M12.5 20v-1.25H3.763l-.013 5a2.491 2.491 0 002.5 2.5h17.5a2.491 2.491 0 002.5-2.5v-5H17.5V20zM25 8.75h-5.013v-2.5l-2.499-2.5h-5l-2.5 2.5v2.5H5a2.507 2.507 0 00-2.5 2.5V15A2.491 2.491 0 005 17.5h7.5V15h5v2.5H25a2.507 2.507 0 002.5-2.5v-3.75a2.507 2.507 0 00-2.5-2.5zm-7.5 0h-5v-2.5h5z" fill="#fff"/></svg>