<svg xmlns="http://www.w3.org/2000/svg" width="30" height="30"><path data-name="INDUSTRIES WE COVER" d="M29.21 20.112h-1.577v-4.669a.592.592 0 00-.592-.592h-11.45v-4.137a3.889 3.889 0 10-1.184 0v4.137H2.958a.592.592 0 00-.592.592v4.669H.789a.792.792 0 00-.789.789v4.342a.791.791 0 00.789.789h4.34a.791.791 0 00.789-.789v-4.342a.792.792 0 00-.789-.789H3.55v-4.077h10.857v4.077h-1.579a.793.793 0 00-.789.789v4.342a.792.792 0 00.789.789h4.342a.792.792 0 00.789-.789v-4.337a.793.793 0 00-.789-.789h-1.579V16.04h10.858v4.077H24.87a.792.792 0 00-.789.789v4.342a.791.791 0 00.789.789h4.34a.791.791 0 00.789-.789v-4.342a.792.792 0 00-.789-.79z" fill="#fff"/></svg>