<svg xmlns="http://www.w3.org/2000/svg" width="36" height="36"><g data-name="Сгруппировать 12"><path data-name="Прямоугольник 14" fill="#390" d="M0 0h36v36H0z"/><path d="M26.715 13.542a10.2 10.2 0 002.285-2.4 9.12 9.12 0 01-2.623.686 4.683 4.683 0 001.946-2.485 10.6 10.6 0 01-2.877 1.114A4.721 4.721 0 0022.146 9a4.489 4.489 0 00-4.485 4.542 4.224 4.224 0 00.085 1.028 12.522 12.522 0 01-9.308-4.8 4.287 4.287 0 00-.592 2.314 4.6 4.6 0 002.031 3.771 4.037 4.037 0 01-2.031-.6v.086a4.494 4.494 0 003.638 4.456 4.936 4.936 0 01-1.185.171 2.843 2.843 0 01-.846-.086 4.56 4.56 0 004.231 3.171 9.046 9.046 0 01-5.585 1.971 4.762 4.762 0 01-1.1-.086 12.936 12.936 0 006.938 2.057c7.954.171 13.115-6.6 12.777-13.455z" fill="#fff"/></g></svg>