<svg id="Сгруппировать_4" data-name="Сгруппировать 4" xmlns="http://www.w3.org/2000/svg" xmlns:xlink="http://www.w3.org/1999/xlink" width="55" height="55" viewBox="0 0 55 55">
  <defs>
    <clipPath id="clip-path">
      <rect id="Прямоугольник_22" data-name="Прямоугольник 22" width="55" height="55" fill="#0068c6" opacity="0"/>
    </clipPath>
  </defs>
  <g id="Группа_масок_11" data-name="Группа масок 11" clip-path="url(#clip-path)">
    <g id="_24-hours-support" data-name="24-hours-support" transform="translate(-0.361 0)">
      <path id="Контур_80" data-name="Контур 80" d="M52.954,17.664a1.05,1.05,0,0,0-.882-.483H47.513a1.074,1.074,0,0,0,0,2.148h2.954L47.46,26.423a1.08,1.08,0,0,0,.551,1.411,1.029,1.029,0,0,0,.417.088,1.056,1.056,0,0,0,.971-.649l3.643-8.593A1.089,1.089,0,0,0,52.954,17.664Z" transform="translate(0.939 0.648)" fill="#0068c6"/>
      <path id="Контур_81" data-name="Контур 81" d="M43.823,17.175a1.05,1.05,0,0,0-1.368.61l-3.3,8.593a1.08,1.08,0,0,0,.6,1.391,1.049,1.049,0,0,0,1.368-.61l3.3-8.593A1.08,1.08,0,0,0,43.823,17.175Z" transform="translate(0.789 0.645)" fill="#0068c6"/>
      <path id="Контур_82" data-name="Контур 82" d="M36.788,37.475A5.063,5.063,0,0,0,33.7,35.065a4.976,4.976,0,0,0-3.858.517l-4.3,2.525a.86.86,0,0,1-.665.089.872.872,0,0,1-.531-.416L14.665,20.726a.9.9,0,0,1-.088-.676.888.888,0,0,1,.409-.541l4.3-2.524a5.225,5.225,0,0,0,1.861-7.064L16.982,2.583A5.043,5.043,0,0,0,10.037.692l-1.461.857A17.63,17.63,0,0,0,2.3,25.38l3.558,6.268a1.047,1.047,0,0,0,1.443.393,1.084,1.084,0,0,0,.387-1.467L4.127,24.305A15.528,15.528,0,0,1,6.2,6.175l6.913,12.18a3.081,3.081,0,0,0-.275,3.445l9.682,17.055a2.974,2.974,0,0,0,1.814,1.417,2.93,2.93,0,0,0,1.257.063l6.872,12.108a14.706,14.706,0,0,1-7.342-.12A14.977,14.977,0,0,1,15.987,45.2l-3.549-6.251A1.046,1.046,0,0,0,11,38.552a1.084,1.084,0,0,0-.387,1.467l3.549,6.251A17.1,17.1,0,0,0,29.039,55a16.842,16.842,0,0,0,8.548-2.344l1.461-.858a5.13,5.13,0,0,0,2.369-3.14,5.215,5.215,0,0,0-.508-3.923Zm-29-32.79A15.179,15.179,0,0,1,9.633,3.409l1.461-.857a2.947,2.947,0,0,1,4.059,1.105L19.318,11a3.054,3.054,0,0,1-1.088,4.129l-3.385,1.987ZM39.377,48.1a3,3,0,0,1-1.385,1.835l-1.461.858a15.2,15.2,0,0,1-2.007.987L27.514,39.431,30.9,37.443a2.91,2.91,0,0,1,2.255-.3,2.957,2.957,0,0,1,1.8,1.408l4.122,7.26a3.054,3.054,0,0,1,.3,2.293Z" transform="translate(-0.004 0)" fill="#0068c6"/>
      <path id="Контур_83" data-name="Контур 83" d="M31.52,25.211h3.09v1.64a1.056,1.056,0,1,0,2.112,0v-1.64h0a1.074,1.074,0,0,0,0-2.148l0-4.283A1.669,1.669,0,0,0,35.6,17.162a1.523,1.523,0,0,0-1.749.74c-.4.624-2.955,5.185-3.244,5.7a1.09,1.09,0,0,0,.005,1.071,1.052,1.052,0,0,0,.913.534Zm3.09-4.4v2.251H33.338C33.775,22.288,34.224,21.49,34.61,20.811Z" transform="translate(0.614 0.645)" fill="#0068c6"/>
      <path id="Контур_84" data-name="Контур 84" d="M22.714,21.048a1.057,1.057,0,0,0,1.24-.848,1.063,1.063,0,0,1,2.107.149,2.543,2.543,0,0,1-.181.641,5.825,5.825,0,0,1-.549.96c-2.6,3.78-2.933,4.258-2.946,4.276a1.089,1.089,0,0,0-.076,1.114,1.053,1.053,0,0,0,.938.581H27.47a1.074,1.074,0,0,0,0-2.148H25.278l1.784-2.591a7.956,7.956,0,0,0,.75-1.322,4.813,4.813,0,0,0,.355-1.314,1.164,1.164,0,0,0,.008-.135,3.173,3.173,0,0,0-6.293-.625,1.073,1.073,0,0,0,.832,1.261Z" transform="translate(0.44 0.648)" fill="#0068c6"/>
      <path id="Контур_85" data-name="Контур 85" d="M9,32.972a1.053,1.053,0,0,0-.747.315,1.087,1.087,0,0,0,0,1.519,1.043,1.043,0,0,0,1.493,0,1.087,1.087,0,0,0,0-1.519A1.055,1.055,0,0,0,9,32.972Z" transform="translate(0.157 1.244)" fill="#0068c6"/>
    </g>
  </g>
</svg>
