<svg id="Сгруппировать_4" data-name="Сгруппировать 4" xmlns="http://www.w3.org/2000/svg" xmlns:xlink="http://www.w3.org/1999/xlink" width="55" height="55" viewBox="0 0 55 55">
  <defs>
    <clipPath id="clip-path">
      <rect id="Прямоугольник_22" data-name="Прямоугольник 22" width="55" height="55" fill="#0068c6" opacity="0"/>
    </clipPath>
  </defs>
  <g id="Группа_масок_8" data-name="Группа масок 8" transform="translate(0)" clip-path="url(#clip-path)">
    <g id="integration" transform="translate(-0.365)">
      <path id="Контур_53" data-name="Контур 53" d="M23.658,20.625H3.38A3.413,3.413,0,0,1,0,17.188V3.438A3.413,3.413,0,0,1,3.38,0H23.658a3.413,3.413,0,0,1,3.38,3.438v13.75A3.413,3.413,0,0,1,23.658,20.625ZM3.38,2.292A1.137,1.137,0,0,0,2.253,3.438v13.75A1.137,1.137,0,0,0,3.38,18.333H23.658a1.137,1.137,0,0,0,1.127-1.146V3.438a1.137,1.137,0,0,0-1.127-1.146Z" fill="#0068c6"/>
      <path id="Контур_54" data-name="Контур 54" d="M16.719,24.375H9.96a1.146,1.146,0,0,1,0-2.292h6.76a1.146,1.146,0,0,1,0,2.292Z" transform="translate(0.179 0.833)" fill="#0068c6"/>
      <path id="Контур_55" data-name="Контур 55" d="M13.272,24.542A1.137,1.137,0,0,1,12.146,23.4V18.812a1.127,1.127,0,1,1,2.253,0V23.4A1.137,1.137,0,0,1,13.272,24.542Z" transform="translate(0.247 0.667)" fill="#0068c6"/>
      <path id="Контур_56" data-name="Контур 56" d="M50.158,49.333H29.88A3.413,3.413,0,0,1,26.5,45.9V32.146a3.413,3.413,0,0,1,3.38-3.438H50.158a3.413,3.413,0,0,1,3.38,3.438V45.9A3.413,3.413,0,0,1,50.158,49.333ZM29.88,31a1.137,1.137,0,0,0-1.127,1.146V45.9a1.137,1.137,0,0,0,1.127,1.146H50.158A1.137,1.137,0,0,0,51.285,45.9V32.146A1.137,1.137,0,0,0,50.158,31Z" transform="translate(0.538 1.083)" fill="#0068c6"/>
      <path id="Контур_57" data-name="Контур 57" d="M43.219,53.083H36.46a1.146,1.146,0,0,1,0-2.292h6.76a1.146,1.146,0,0,1,0,2.292Z" transform="translate(0.717 1.917)" fill="#0068c6"/>
      <path id="Контур_58" data-name="Контур 58" d="M39.772,53.25A1.137,1.137,0,0,1,38.646,52.1V47.521a1.127,1.127,0,1,1,2.253,0V52.1A1.137,1.137,0,0,1,39.772,53.25Z" transform="translate(0.785 1.75)" fill="#0068c6"/>
      <path id="Контур_59" data-name="Контур 59" d="M35.423,11.125h-3.38a1.146,1.146,0,0,1,0-2.292h3.38a1.146,1.146,0,0,1,0,2.292Z" transform="translate(0.628 0.333)" fill="#0068c6"/>
      <path id="Контур_60" data-name="Контур 60" d="M43.151,16.752a1.137,1.137,0,0,1-1.127-1.146v-1.05a3.439,3.439,0,0,0-2.476-3.314,1.15,1.15,0,0,1-.786-1.409,1.129,1.129,0,0,1,1.386-.8,5.731,5.731,0,0,1,4.13,5.523v1.05A1.137,1.137,0,0,1,43.151,16.752Z" transform="translate(0.786 0.339)" fill="#0068c6"/>
      <path id="Контур_61" data-name="Контур 61" d="M43.085,24.5a1.137,1.137,0,0,1-1.127-1.146V19.917a1.127,1.127,0,1,1,2.253,0v3.438A1.137,1.137,0,0,1,43.085,24.5Z" transform="translate(0.852 0.708)" fill="#0068c6"/>
      <path id="Контур_62" data-name="Контур 62" d="M21.069,44.25h-3.38a1.146,1.146,0,0,1,0-2.292h3.38a1.146,1.146,0,0,1,0,2.292Z" transform="translate(0.336 1.583)" fill="#0068c6"/>
      <path id="Контур_63" data-name="Контур 63" d="M13.263,44.29a1.154,1.154,0,0,1-.3-.041,5.732,5.732,0,0,1-4.128-5.523v-1.05a1.127,1.127,0,1,1,2.253,0v1.05a3.439,3.439,0,0,0,2.476,3.314,1.15,1.15,0,0,1,.786,1.409A1.132,1.132,0,0,1,13.263,44.29Z" transform="translate(0.179 1.378)" fill="#0068c6"/>
      <path id="Контур_64" data-name="Контур 64" d="M9.96,34.437a1.137,1.137,0,0,1-1.127-1.146V29.854a1.127,1.127,0,1,1,2.253,0v3.438A1.137,1.137,0,0,1,9.96,34.437Z" transform="translate(0.179 1.083)" fill="#0068c6"/>
    </g>
  </g>
</svg>
