<svg id="Сгруппировать_4" data-name="Сгруппировать 4" xmlns="http://www.w3.org/2000/svg" xmlns:xlink="http://www.w3.org/1999/xlink" width="55" height="55" viewBox="0 0 55 55">
  <defs>
    <clipPath id="clip-path">
      <rect id="Прямоугольник_22" data-name="Прямоугольник 22" width="55" height="55" fill="#0068c6" opacity="0"/>
    </clipPath>
  </defs>
  <g id="Группа_масок_6" data-name="Группа масок 6" clip-path="url(#clip-path)">
    <g id="Без_названия_13_" data-name="Без названия (13)" transform="translate(-0.186 7.585)">
      <g id="Сгруппировать_37" data-name="Сгруппировать 37" transform="translate(0 0.127)">
        <path id="Контур_43" data-name="Контур 43" d="M28.709,23.621l1.844-.947A.843.843,0,0,0,30.966,22a.928.928,0,0,0-.34-.765l-8.4-6.575a.932.932,0,0,0-.931-.091.724.724,0,0,0-.412.765L21.135,26.1a.731.731,0,0,0,.412.674.782.782,0,0,0,.842,0l1.844-.947,3.187,6.32a.85.85,0,0,0,.5.419h.251a.683.683,0,0,0,.412-.091l2.847-1.457a.8.8,0,0,0,.34-1.111Zm-.179,7.084-3.187-6.32a.855.855,0,0,0-.752-.419.683.683,0,0,0-.412.091l-1.432.765-.161-7.594,5.963,4.608-1.343.692a.857.857,0,0,0-.412.51.663.663,0,0,0,.09.692l3.187,6.32Z" transform="translate(0.424 -6.957)" fill="#0068c6" stroke="#0068c6" stroke-width="0.351"/>
        <path id="Контур_44" data-name="Контур 44" d="M52.876,38.573H49.438V11.51a4.186,4.186,0,0,0-4.19-4.262H40V8.961h5.246a2.5,2.5,0,0,1,2.525,2.568V38.682H5.963V11.51A2.5,2.5,0,0,1,8.487,8.942H33.251c-.018-.565-.018-1.147,0-1.712H8.47a4.186,4.186,0,0,0-4.19,4.262V38.646H.842A.806.806,0,0,0,0,39.5v2.477a4.918,4.918,0,0,0,4.87,4.954H48.847a4.918,4.918,0,0,0,4.87-4.954V39.5A.867.867,0,0,0,52.876,38.573Zm-.842,3.333a3.222,3.222,0,0,1-3.187,3.242H4.87a3.222,3.222,0,0,1-3.187-3.242V40.285H52.053v1.621Z" transform="translate(0 -7.23)" fill="#0068c6" stroke="#0068c6" stroke-width="0.351"/>
        <path id="Контур_45" data-name="Контур 45" d="M22.393,42.339H30.45a.856.856,0,0,0,0-1.712H22.393a.806.806,0,0,0-.842.856A.8.8,0,0,0,22.393,42.339Z" transform="translate(0.438 -5.97)" fill="#0068c6" stroke="#0068c6" stroke-width="0.351"/>
      </g>
      <ellipse id="Эллипс_4" data-name="Эллипс 4" cx="1.003" cy="1.02" rx="1.003" ry="1.02" transform="translate(35.436)" fill="#0068c6" stroke="#0068c6" stroke-width="0.351"/>
    </g>
  </g>
</svg>
