<svg id="Сгруппировать_4" data-name="Сгруппировать 4" xmlns="http://www.w3.org/2000/svg" xmlns:xlink="http://www.w3.org/1999/xlink" width="55" height="55" viewBox="0 0 55 55">
  <defs>
    <clipPath id="clip-path">
      <rect id="Прямоугольник_24" data-name="Прямоугольник 24" width="55" height="55" fill="#0068c6" opacity="0"/>
    </clipPath>
  </defs>
  <g id="Группа_масок_9" data-name="Группа масок 9" transform="translate(0)" clip-path="url(#clip-path)">
    <g id="Без_названия_14_" data-name="Без названия (14)" transform="translate(0.753 1.469)">
      <g id="Сгруппировать_38" data-name="Сгруппировать 38" transform="translate(0 0.596)">
        <path id="Контур_65" data-name="Контур 65" d="M53.166,7.259c.022.508.022,1.038.044,1.546a5.852,5.852,0,0,1,5.406,5.831v4.528H7.207V14.637a5.827,5.827,0,0,1,5.825-5.853H46.657c-.022-.508-.044-1.038-.044-1.546H13.032a7.4,7.4,0,0,0-7.391,7.4V51.082a7.4,7.4,0,0,0,7.391,7.4H52.746a7.4,7.4,0,0,0,7.391-7.4V14.637A7.386,7.386,0,0,0,53.166,7.259Zm5.428,43.823a5.86,5.86,0,0,1-5.847,5.853H13.032a5.86,5.86,0,0,1-5.847-5.853V20.711H58.593Z" transform="translate(-5.641 -7.237)" fill="#0068c6" stroke="#0068c6" stroke-width="0.426"/>
        <path id="Контур_66" data-name="Контур 66" d="M19.228,15.835A2.032,2.032,0,1,0,17.2,13.8,2.084,2.084,0,0,0,19.228,15.835Z" transform="translate(-5.218 -7.066)" fill="#0068c6" stroke="#0068c6" stroke-width="0.426"/>
        <path id="Контур_67" data-name="Контур 67" d="M25.614,11.771a2.032,2.032,0,1,0,2.03,2.032A2.018,2.018,0,0,0,25.614,11.771Z" transform="translate(-4.984 -7.066)" fill="#0068c6" stroke="#0068c6" stroke-width="0.426"/>
        <path id="Контур_68" data-name="Контур 68" d="M12.843,11.771a2.032,2.032,0,1,0,2.03,2.032A2.018,2.018,0,0,0,12.843,11.771Z" transform="translate(-5.451 -7.066)" fill="#0068c6" stroke="#0068c6" stroke-width="0.426"/>
        <path id="Контур_69" data-name="Контур 69" d="M51.074,29.714H14.139a.773.773,0,0,0,0,1.546H51.074a.773.773,0,0,0,0-1.546Z" transform="translate(-5.358 -6.389)" fill="#0068c6" stroke="#0068c6" stroke-width="0.426"/>
        <path id="Контур_70" data-name="Контур 70" d="M51.074,37.377H14.139a.773.773,0,0,0,0,1.546H51.074a.773.773,0,0,0,0-1.546Z" transform="translate(-5.358 -6.1)" fill="#0068c6" stroke="#0068c6" stroke-width="0.426"/>
        <path id="Контур_71" data-name="Контур 71" d="M51.074,45.039H14.139a.773.773,0,0,0,0,1.546H51.074a.773.773,0,0,0,0-1.546Z" transform="translate(-5.358 -5.81)" fill="#0068c6" stroke="#0068c6" stroke-width="0.426"/>
      </g>
      <path id="Контур_72" data-name="Контур 72" d="M48.32,6.662a1.249,1.249,0,0,0-.9.376,1.29,1.29,0,0,0-.375.906,1.3,1.3,0,1,0,2.6,0A1.335,1.335,0,0,0,48.32,6.662Z" transform="translate(-4.126 -6.662)" fill="#0068c6"/>
    </g>
  </g>
</svg>
