<svg id="Сгруппировать_4" data-name="Сгруппировать 4" xmlns="http://www.w3.org/2000/svg" xmlns:xlink="http://www.w3.org/1999/xlink" width="55" height="55" viewBox="0 0 55 55">
  <defs>
    <clipPath id="clip-path">
      <rect id="Прямоугольник_22" data-name="Прямоугольник 22" width="55" height="55" fill="#0068c6" opacity="0"/>
    </clipPath>
  </defs>
  <g id="Группа_масок_10" data-name="Группа масок 10" transform="translate(0)" clip-path="url(#clip-path)">
    <g id="secure-folder" transform="translate(0.533 4.621)">
      <g id="Сгруппировать_40" data-name="Сгруппировать 40">
        <g id="Сгруппировать_39" data-name="Сгруппировать 39">
          <path id="Контур_73" data-name="Контур 73" d="M.209,49.457a.953.953,0,0,0,.951.952H54.185a.953.953,0,0,0,.951-.952V12.53a.953.953,0,0,0-.951-.952H28.64L25.224,5.16a.94.94,0,0,0-.832-.509H1.149A.953.953,0,0,0,.2,5.6V49.457ZM2.1,6.556H23.819l3.405,6.418a.94.94,0,0,0,.832.509H53.212V48.5H2.1Z" transform="translate(-0.198 -4.651)" fill="#0068c6"/>
          <path id="Контур_74" data-name="Контур 74" d="M17.1,9.1h-.032a.952.952,0,0,0,0,1.9H17.1a.952.952,0,0,0,0-1.9Z" transform="translate(0.384 -4.483)" fill="#0068c6"/>
          <path id="Контур_75" data-name="Контур 75" d="M5.6,11h8.573a.952.952,0,0,0,0-1.9H5.6a.952.952,0,0,0,0,1.9Z" transform="translate(-0.035 -4.484)" fill="#0068c6"/>
          <path id="Контур_76" data-name="Контур 76" d="M38.8,28.086v-5.7a.971.971,0,0,0-.7-.92A44.6,44.6,0,0,1,27.587,17a.964.964,0,0,0-.486-.13.994.994,0,0,0-.486.13,42.348,42.348,0,0,1-10.508,4.459.951.951,0,0,0-.7.92v5.7A16.8,16.8,0,0,0,20.5,40.348c2.67,2.619,5.513,3.831,6.594,3.831s3.924-1.223,6.594-3.831A16.719,16.719,0,0,0,38.8,28.086Zm-6.313,10.8a12.4,12.4,0,0,1-5.351,3.4H27.09a12.46,12.46,0,0,1-5.351-3.4,14.943,14.943,0,0,1-4.411-10.8V23.108l.151-.043A43.689,43.689,0,0,0,27,19l.108-.065.108.065a45.569,45.569,0,0,0,9.524,4.069l.151.043v4.978A14.9,14.9,0,0,1,32.484,38.887Z" transform="translate(0.358 -4.19)" fill="#0068c6"/>
          <path id="Контур_77" data-name="Контур 77" d="M20.555,30.9l3.784,3.788a.939.939,0,0,0,1.34,0l7.621-7.63a.948.948,0,0,0-1.34-1.342l-6.951,6.959L21.9,29.559a.939.939,0,0,0-1.34,0,.943.943,0,0,0-.281.671A1,1,0,0,0,20.555,30.9Z" transform="translate(0.536 -3.867)" fill="#0068c6"/>
          <path id="Контур_78" data-name="Контур 78" d="M39.727,42.467h-.032a.952.952,0,0,0,0,1.9h.032a.952.952,0,0,0,0-1.9Z" transform="translate(1.212 -3.224)" fill="#0068c6"/>
          <path id="Контур_79" data-name="Контур 79" d="M48.041,42.467H42.928a.952.952,0,0,0,0,1.9h5.113a.952.952,0,0,0,0-1.9Z" transform="translate(1.33 -3.224)" fill="#0068c6"/>
        </g>
      </g>
    </g>
  </g>
</svg>
