<svg xmlns="http://www.w3.org/2000/svg" width="20" height="20" viewBox="0 0 20 20">
  <g id="up-arrow" transform="translate(20) rotate(90)">
    <g id="Сгруппировать_9" data-name="Сгруппировать 9">
      <g id="Сгруппировать_8" data-name="Сгруппировать 8">
        <path id="Контур_2" data-name="Контур 2" d="M10,0A10,10,0,1,0,20,10,10.011,10.011,0,0,0,10,0Zm0,18.451A8.451,8.451,0,1,1,18.451,10,8.461,8.461,0,0,1,10,18.451Z" fill="#390"/>
      </g>
    </g>
    <g id="Сгруппировать_11" data-name="Сгруппировать 11" transform="translate(4.938 6.714)">
      <g id="Сгруппировать_10" data-name="Сгруппировать 10">
        <path id="Контур_3" data-name="Контур 3" d="M9.919,4.5,5.662.248a.851.851,0,0,0-1.2,0L.2,4.5a.851.851,0,0,0,1.2,1.2L5.058,2.053,8.718,5.7a.849.849,0,0,0,1.2-1.2Z" fill="#390"/>
      </g>
    </g>
  </g>
</svg>
