<svg id="clock" xmlns="http://www.w3.org/2000/svg" width="30" height="30" viewBox="0 0 30 30">
  <g id="Group_40" data-name="Group 40" transform="translate(0 0)">
    <g id="Group_39" data-name="Group 39">
      <path id="Path_13" data-name="Path 13" d="M25.607,4.393A15,15,0,0,0,4.393,25.607,15,15,0,0,0,25.607,4.393ZM15,27.056A12.069,12.069,0,0,1,2.944,15c0-.011,0-.022,0-.032s0-.005,0-.008,0-.009,0-.014a12.069,12.069,0,0,1,11.891-12l.041,0H15a12.056,12.056,0,1,1,0,24.112Z" transform="translate(0 0)" fill="#390"/>
    </g>
  </g>
  <g id="Group_42" data-name="Group 42" transform="translate(4.754 4.748)">
    <g id="Group_41" data-name="Group 41">
      <path id="Path_14" data-name="Path 14" d="M100.545,92.005a.888.888,0,1,1,0-1.775h1.07a10.3,10.3,0,0,0-9.462-9.2v.931a.888.888,0,0,1-1.775,0v-.91a10.3,10.3,0,0,0-9.228,9.3h.958a.888.888,0,1,1,0,1.775h-.965a10.3,10.3,0,0,0,9.358,9.4V100.4a.888.888,0,1,1,1.775,0v1.125a10.3,10.3,0,0,0,9.367-9.518Zm-5.564-3.062-2.965,2.965a.888.888,0,0,1-1.255,0L85.6,86.747a.888.888,0,0,1,1.255-1.255l4.534,4.534,2.338-2.338a.888.888,0,1,1,1.255,1.255Z" transform="translate(-81.142 -81.029)" fill="#390"/>
    </g>
  </g>
</svg>
