<svg id="Компонент_3_1" data-name="Компонент 3 – 1" xmlns="http://www.w3.org/2000/svg" width="13" height="13" viewBox="0 0 13 13">
  <rect id="Прямоугольник_21" data-name="Прямоугольник 21" width="13" height="13" fill="#fff" opacity="0"/>
  <path id="Контур_1" data-name="Контур 1" d="M7.754,61.81a4.656,4.656,0,0,0,1.881-1.367,2.921,2.921,0,0,0,0-3.769,4.656,4.656,0,0,0-1.881-1.367,6.6,6.6,0,0,0-2.592-.5,6.606,6.606,0,0,0-2.592.5A4.656,4.656,0,0,0,.689,56.674,2.961,2.961,0,0,0,0,58.558,2.881,2.881,0,0,0,.521,60.2a4.284,4.284,0,0,0,1.43,1.3q-.073.176-.15.323a1.859,1.859,0,0,1-.183.282l-.165.213q-.059.077-.191.216t-.169.183s-.01.006-.029.033-.031.039-.033.037-.012.01-.029.036l-.026.04L.957,62.9a.157.157,0,0,0-.015.044.287.287,0,0,0,0,.048.148.148,0,0,0,.007.048.243.243,0,0,0,.084.154.229.229,0,0,0,.15.059H1.2a6.147,6.147,0,0,0,.631-.117,6.165,6.165,0,0,0,2.038-.938,7.363,7.363,0,0,0,1.29.117A6.6,6.6,0,0,0,7.754,61.81Z" transform="translate(0 -53.804)" fill="#666"/>
  <path id="Контур_2" data-name="Контур 2" d="M183.968,162.215a2.862,2.862,0,0,0-.029-3.333,4.346,4.346,0,0,0-1.5-1.305,3.773,3.773,0,0,1-.323,2.977,4.908,4.908,0,0,1-1.408,1.554,6.492,6.492,0,0,1-1.936.946,7.746,7.746,0,0,1-2.265.33q-.22,0-.645-.029a6.161,6.161,0,0,0,3.461.968,7.368,7.368,0,0,0,1.29-.117,5.855,5.855,0,0,0,2.669,1.056.221.221,0,0,0,.161-.051.271.271,0,0,0,.1-.161c0-.029,0-.045.007-.048s.006-.018,0-.048l-.015-.044-.018-.037a.353.353,0,0,0-.026-.04.316.316,0,0,0-.029-.037l-.033-.037-.029-.033q-.037-.044-.169-.183t-.191-.216l-.165-.213a1.855,1.855,0,0,1-.183-.282q-.077-.147-.15-.323A4.3,4.3,0,0,0,183.968,162.215Z" transform="translate(-171.489 -154.262)" fill="#666"/>
</svg>
