<svg xmlns="http://www.w3.org/2000/svg" width="14" height="14" viewBox="0 0 14 14"><defs><style>.a{fill:#fff;opacity:0;}.b{fill:#390;fill-rule:evenodd;}</style></defs><g transform="translate(-684 -441)"><rect class="a" width="14" height="14" transform="translate(684 441)"/><g transform="translate(620.07 374.86)"><path class="b" d="M64.681,67.321l5.97-1.181V78.852h.558V68.631l5.97.951v9.27h.751v1.2h-14v-1.2h.751V67.321Zm10.63,5.99H76.47v1.2H75.311Zm-1.7,0h1.159v1.2H73.614Zm-1.7,0h1.159v1.2H71.918Zm3.393-1.943H76.47v1.2H75.311Zm-1.7,0h1.159v1.2H73.614Zm-1.7,0h1.159v1.2H71.918Zm-6.56,2.83h4.614v.668H65.359Zm0-1.731h4.614v.668H65.359Zm0-1.731h4.614V71.4H65.359Zm0-1.731h4.614v.668H65.359Z"/></g></g></svg>