<svg xmlns="http://www.w3.org/2000/svg" width="30" height="30" viewBox="0 0 30 30">
  <g id="exchange" transform="translate(-388 -727)">
    <g id="Rectangle_29" data-name="Rectangle 29" transform="translate(388 727)" fill="#fff" stroke="#707070" stroke-width="1" opacity="0">
      <rect width="30" height="30" stroke="none"/>
      <rect x="0.5" y="0.5" width="29" height="29" fill="none"/>
    </g>
    <g id="exchange-2" data-name="exchange" transform="translate(388 727)">
      <g id="Group_44" data-name="Group 44">
        <path id="Path_24" data-name="Path 24" d="M15,0A15,15,0,1,0,30,15,15,15,0,0,0,15,0ZM6.969,20.97l-4.483-2L3.2,17.369l1.655.737A10.63,10.63,0,0,1,7.5,7.5a10.511,10.511,0,0,1,6.081-3.012,10.685,10.685,0,0,1,6.539,1.22l-.849,1.539A8.916,8.916,0,0,0,13.815,6.23,8.768,8.768,0,0,0,8.743,8.743a8.868,8.868,0,0,0-2.2,8.865l.817-1.836,1.606.715Zm18.176-9.075A10.63,10.63,0,0,1,22.5,22.5a10.571,10.571,0,0,1-7.484,3.105A10.675,10.675,0,0,1,9.88,24.292l.849-1.539a8.914,8.914,0,0,0,5.456,1.017,8.768,8.768,0,0,0,5.072-2.513,8.868,8.868,0,0,0,2.2-8.865l-.817,1.836-1.606-.715,2-4.483,4.483,2L26.8,12.631Z" fill="#390"/>
      </g>
    </g>
  </g>
</svg>
