<svg xmlns="http://www.w3.org/2000/svg" xmlns:xlink="http://www.w3.org/1999/xlink" width="39" height="40" viewBox="0 0 39 40">
  <defs>
    <clipPath id="clip-path">
      <rect id="Прямоугольник_22" data-name="Прямоугольник 22" width="39" height="40" transform="translate(-0.46)" fill="#1facf0"/>
    </clipPath>
  </defs>
  <g id="Сгруппировать_2" data-name="Сгруппировать 2" transform="translate(0.46)">
    <g id="Группа_масок_4" data-name="Группа масок 4" transform="translate(0)" clip-path="url(#clip-path)">
      <g id="Без_названия_12_" data-name="Без названия (12)" transform="translate(0.786 0.172)">
        <path id="Контур_28" data-name="Контур 28" d="M32.414,28.915a4.836,4.836,0,1,0,4.638,4.832A4.743,4.743,0,0,0,32.414,28.915Zm0,8.96a4.131,4.131,0,1,1,3.962-4.127A4.059,4.059,0,0,1,32.414,37.875Z" transform="translate(-13.663 -15.278)" fill="#0068c6" stroke="#0068c6" stroke-width="0.456"/>
        <path id="Контур_29" data-name="Контур 29" d="M42.81,14.811H40V13.642A2.523,2.523,0,0,0,37.4,11.1H36.009a2.656,2.656,0,0,1-.017.808h1.4a1.734,1.734,0,0,1,1.832,1.737v1.083H14.864V13.642A1.734,1.734,0,0,1,16.7,11.9H32.147a2.644,2.644,0,0,1-.017-.808H16.7a2.523,2.523,0,0,0-2.608,2.545v1.169H11.282a3.051,3.051,0,0,0-2.988,3.113v21.6a2.742,2.742,0,0,0,2.674,2.786h10.8l-2.146,7.463h-3.7a.4.4,0,0,0,0,.791H36.587a.4.4,0,0,0,0-.791H32.906L30.76,42.309H43.14a2.742,2.742,0,0,0,2.674-2.786V17.941A3.08,3.08,0,0,0,42.81,14.811Zm-27.946.722H39.245V36.669H14.864Zm-5.81,2.408a2.278,2.278,0,0,1,2.228-2.322h2.806V36.669H9.053ZM32.1,49.773H20.427l2.146-7.463h7.362ZM45.039,39.523a1.939,1.939,0,0,1-1.9,1.978H10.952a1.94,1.94,0,0,1-1.9-1.978V37.494H45.039Zm0-2.837H40V15.62H42.81a2.26,2.26,0,0,1,2.212,2.3V36.686Z" transform="translate(-8.294 -10.908)" fill="#0068c6" stroke="#0068c6" stroke-width="0.456"/>
        <path id="Контур_30" data-name="Контур 30" d="M43.689,12.05a.6.6,0,0,0,0-1.2h0a.6.6,0,0,0-.578.6A.587.587,0,0,0,43.689,12.05Z" transform="translate(-17.888 -10.846)" fill="#0068c6" stroke="#0068c6" stroke-width="0.456"/>
        <path id="Контур_31" data-name="Контур 31" d="M26.014,21.845h2.905a.4.4,0,0,0,0-.791H26.014a.4.4,0,0,0,0,.791Z" transform="translate(-13.072 -13.35)" fill="#0068c6" stroke="#0068c6" stroke-width="0.456"/>
        <path id="Контур_32" data-name="Контур 32" d="M36.089,24.982a.382.382,0,0,0-.38-.4H26.037a.4.4,0,0,0,0,.791H35.71A.392.392,0,0,0,36.089,24.982Z" transform="translate(-13.079 -14.216)" fill="#0068c6" stroke="#0068c6" stroke-width="0.456"/>
        <path id="Контур_33" data-name="Контур 33" d="M34.9,34.3a1.528,1.528,0,0,0-.429-.258c-.165-.069-.363-.138-.578-.206l-.2-.052v-.877a2.552,2.552,0,0,1,.347.086,1.751,1.751,0,0,1,.314.138l.231.12a.412.412,0,0,1,.116.086l.446-.877c-.182-.1-.38-.206-.611-.31a2.745,2.745,0,0,0-.759-.189v-.653h-.446v.653a2.07,2.07,0,0,0-.561.138,1.36,1.36,0,0,0-.446.292,1.165,1.165,0,0,0-.3.447,1.394,1.394,0,0,0-.116.6,1.209,1.209,0,0,0,.066.447.921.921,0,0,0,.215.344,1.175,1.175,0,0,0,.363.258c.149.069.33.138.528.206l.3.086v.86a1.748,1.748,0,0,1-.429-.1c-.149-.052-.264-.1-.38-.155a2.141,2.141,0,0,1-.281-.155c-.066-.052-.116-.086-.132-.1l-.446.929a3.526,3.526,0,0,0,.759.378,3.654,3.654,0,0,0,.858.189v.757h.429v-.757a2.148,2.148,0,0,0,.578-.1,1.188,1.188,0,0,0,.479-.258,1.221,1.221,0,0,0,.33-.43,1.442,1.442,0,0,0,.132-.636,1.416,1.416,0,0,0-.1-.55A1.714,1.714,0,0,0,34.9,34.3Zm-1.5-.6a1.008,1.008,0,0,1-.33-.172.372.372,0,0,1-.116-.258c0-.224.149-.344.429-.378V33.7Zm.3,1.995v-.774a1.113,1.113,0,0,1,.347.172.331.331,0,0,1,.132.258C34.178,35.555,34.012,35.676,33.7,35.693Z" transform="translate(-14.749 -15.865)" fill="#0068c6"/>
      </g>
    </g>
  </g>
</svg>
