<svg xmlns="http://www.w3.org/2000/svg" xmlns:xlink="http://www.w3.org/1999/xlink" width="39" height="40" viewBox="0 0 39 40">
  <defs>
    <clipPath id="clip-path">
      <rect id="Прямоугольник_22" data-name="Прямоугольник 22" width="39" height="40" transform="translate(-0.46)" fill="#0068c6"/>
    </clipPath>
  </defs>
  <g id="Сгруппировать_6" data-name="Сгруппировать 6" transform="translate(0.46)">
    <g id="Группа_масок_2" data-name="Группа масок 2" transform="translate(0)" clip-path="url(#clip-path)">
      <g id="Без_названия_10_" data-name="Без названия (10)" transform="translate(4.78 0)">
        <path id="Контур_16" data-name="Контур 16" d="M37.919,17.073a.8.8,0,0,0,.766.8h9.609V54.719H21.767V17.871h9.609a.8.8,0,0,0,.766-.8.9.9,0,0,0-.825-.8H21a.8.8,0,0,0-.766.8V55.455a.8.8,0,0,0,.766.8H49a.8.8,0,0,0,.766-.8V17.073a.8.8,0,0,0-.766-.8H38.685A.8.8,0,0,0,37.919,17.073Z" transform="translate(-20.234 -16.254)" fill="#0068c6"/>
        <path id="Контур_17" data-name="Контур 17" d="M49.173,28.48H37.384a.8.8,0,0,0,0,1.6h11.79a.8.8,0,0,0,.766-.8A.841.841,0,0,0,49.173,28.48Z" transform="translate(-24.749 -19.248)" fill="#0068c6"/>
        <path id="Контур_18" data-name="Контур 18" d="M37.384,36.1h7.369a.8.8,0,0,0,0-1.6H37.384a.8.8,0,0,0,0,1.6Z" transform="translate(-24.749 -20.725)" fill="#0068c6"/>
        <path id="Контур_19" data-name="Контур 19" d="M49.173,40.686H37.384a.8.8,0,0,0,0,1.6h11.79a.8.8,0,0,0,.766-.8A.841.841,0,0,0,49.173,40.686Z" transform="translate(-24.749 -22.242)" fill="#0068c6"/>
        <path id="Контур_20" data-name="Контур 20" d="M37.384,48.3h7.369a.8.8,0,0,0,0-1.6H37.384a.8.8,0,0,0,0,1.6Z" transform="translate(-24.749 -23.719)" fill="#0068c6"/>
        <path id="Контур_21" data-name="Контур 21" d="M49.858,53.69a.8.8,0,0,0-.766-.8H37.3a.8.8,0,0,0,0,1.6h11.79A.894.894,0,0,0,49.858,53.69Z" transform="translate(-24.726 -25.235)" fill="#0068c6"/>
        <path id="Контур_22" data-name="Контур 22" d="M37.384,58.994a.8.8,0,0,0,0,1.6h7.369a.8.8,0,0,0,0-1.6Z" transform="translate(-24.749 -26.732)" fill="#0068c6"/>
        <path id="Контур_23" data-name="Контур 23" d="M25.633,31.8a.726.726,0,0,0-1.061,0,.8.8,0,0,0,0,1.105l1.474,1.535a.862.862,0,0,0,.531.246.707.707,0,0,0,.531-.246l4.421-4.606a.8.8,0,0,0,0-1.105.726.726,0,0,0-1.061,0l-3.832,4.053Z" transform="translate(-21.369 -19.253)" fill="#0068c6"/>
        <path id="Контур_24" data-name="Контур 24" d="M31.089,40.936a.726.726,0,0,0-1.061,0l-1.71,1.781-1.71-1.781a.726.726,0,0,0-1.061,0,.8.8,0,0,0,0,1.105l1.71,1.781L25.548,45.6a.8.8,0,0,0,0,1.105.862.862,0,0,0,.531.246.707.707,0,0,0,.531-.246l1.71-1.781,1.71,1.781a.862.862,0,0,0,.531.246.707.707,0,0,0,.531-.246.8.8,0,0,0,0-1.105l-1.71-1.842,1.71-1.781A.727.727,0,0,0,31.089,40.936Z" transform="translate(-21.638 -22.247)" fill="#0068c6"/>
        <path id="Контур_25" data-name="Контур 25" d="M31.089,53.142a.726.726,0,0,0-1.061,0l-1.71,1.781-1.71-1.781a.726.726,0,0,0-1.061,0,.8.8,0,0,0,0,1.105l1.71,1.781-1.71,1.781a.8.8,0,0,0,0,1.105.862.862,0,0,0,.531.246.707.707,0,0,0,.531-.246l1.71-1.781,1.71,1.781a.862.862,0,0,0,.531.246.707.707,0,0,0,.531-.246.8.8,0,0,0,0-1.105l-1.71-1.842,1.71-1.781A.727.727,0,0,0,31.089,53.142Z" transform="translate(-21.638 -25.24)" fill="#0068c6"/>
        <ellipse id="Эллипс_2" data-name="Эллипс 2" cx="0.865" cy="0.901" rx="0.865" ry="0.901" transform="translate(13.892)" fill="#0068c6"/>
      </g>
    </g>
  </g>
</svg>
