<svg xmlns="http://www.w3.org/2000/svg" xmlns:xlink="http://www.w3.org/1999/xlink" width="39" height="40" viewBox="0 0 39 40">
  <defs>
    <clipPath id="clip-path">
      <rect id="Прямоугольник_22" data-name="Прямоугольник 22" width="39" height="40" transform="translate(-0.461)" fill="#1facf0"/>
    </clipPath>
  </defs>
  <g id="Сгруппировать_5" data-name="Сгруппировать 5" transform="translate(0.461)">
    <g id="Группа_масок_3" data-name="Группа масок 3" transform="translate(0)" clip-path="url(#clip-path)">
      <g id="Без_названия_11_" data-name="Без названия (11)" transform="translate(0.036 0)">
        <path id="Контур_26" data-name="Контур 26" d="M44.526,46.088h9v-1.88h-8.08V34.571H43.6V45.148A.935.935,0,0,0,44.526,46.088Z" transform="translate(-26.303 -23.782)" fill="#0068c6"/>
        <path id="Контур_27" data-name="Контур 27" d="M21.242,46.484A19.753,19.753,0,0,0,31.008,58.1a19.122,19.122,0,0,0,14.984,1.175A19.588,19.588,0,0,0,57.4,49.328a20.364,20.364,0,0,0,.9-15.984,9.343,9.343,0,0,1-1.732.729,18.21,18.21,0,0,1-9.258,22.636,17.41,17.41,0,0,1-13.6.541,17.755,17.755,0,0,1-10-9.4A18.32,18.32,0,0,1,23.182,34a17.827,17.827,0,0,1,9.235-10.178,18.862,18.862,0,0,1,14.776-.259,8.183,8.183,0,0,1,.785-1.716,21.5,21.5,0,0,0-8.057-1.575A19.481,19.481,0,0,0,22.4,31.205,20.278,20.278,0,0,0,21.242,46.484Z" transform="translate(-20.266 -20.275)" fill="#0068c6"/>
        <ellipse id="Эллипс_3" data-name="Эллипс 3" cx="1.616" cy="1.645" rx="1.616" ry="1.645" transform="translate(32.537 4.207)" fill="#0068c6"/>
      </g>
    </g>
  </g>
</svg>
