<svg xmlns="http://www.w3.org/2000/svg" width="39.381" height="40" viewBox="0 0 39.381 40">
  <g id="Сгруппировать_4" data-name="Сгруппировать 4" transform="translate(0.46)">
    <rect id="Прямоугольник_22" data-name="Прямоугольник 22" width="39" height="40" transform="translate(-0.46)" fill="#a8a8a8" opacity="0"/>
    <g id="Без_названия_9_" data-name="Без названия (9)" transform="translate(0 2)">
      <g id="Сгруппировать_7" data-name="Сгруппировать 7" transform="translate(0 0.082)">
        <path id="Контур_14" data-name="Контур 14" d="M80.9,148.349V131.076a1.483,1.483,0,0,0-.025-.3.764.764,0,0,0-.882-.654.791.791,0,0,0-.564.954v16.456H43.471V131.621a4.181,4.181,0,0,1,3.946-4.386H76.681a.822.822,0,0,0,0-1.635H47.417c-2.99,0-5.417,2.7-5.417,6.021v17.954c0,3.324,2.426,6.021,5.417,6.021H60.725v3.051H53.814a.822.822,0,0,0,0,1.635H69.107a.822.822,0,0,0,0-1.635H62.2V155.6H75.5c2.99,0,5.417-2.7,5.417-6.021v-1.2c-.025,0-.025-.027-.025-.027Zm-5.417,5.612H47.417a4.181,4.181,0,0,1-3.946-4.386v-.409H79.426v.409A4.2,4.2,0,0,1,75.48,153.962Z" transform="translate(-42 -125.6)" fill="#0068c6"/>
        <path id="Контур_15" data-name="Контур 15" d="M100.15,159.048a.663.663,0,0,0-1.029,0,.852.852,0,0,0,0,1.144L103.9,165.5h0c.025.027.049.027.074.054a.512.512,0,0,0,.147.109.524.524,0,0,0,.27.054h0a.8.8,0,0,0,.27-.054.886.886,0,0,0,.245-.191l4.8-5.285a.852.852,0,0,0,0-1.144.663.663,0,0,0-1.029,0l-3.529,3.923v-9.754a.739.739,0,1,0-1.471,0v9.754Z" transform="translate(-84.954 -145.098)" fill="#0068c6"/>
      </g>
      <ellipse id="Эллипс_1" data-name="Эллипс 1" cx="1.005" cy="1.117" rx="1.005" ry="1.117" transform="translate(36.887)" fill="#0068c6"/>
    </g>
  </g>
</svg>
