<svg id="instagram" xmlns="http://www.w3.org/2000/svg" width="36" height="36" viewBox="0 0 36 36">
  <g id="instagram_hover" transform="translate(2.978)">
    <rect id="Прямоугольник_15" data-name="Прямоугольник 15" width="36" height="36" transform="translate(-2.978)" fill="#390"/>
    <g id="Сгруппировать_14" data-name="Сгруппировать 14" transform="translate(4.022 7)">
      <path id="Контур_5" data-name="Контур 5" d="M259.07,243H248.92a5.938,5.938,0,0,0-5.92,5.92V259.07a5.938,5.938,0,0,0,5.92,5.92H259.07a5.938,5.938,0,0,0,5.92-5.92V248.92A5.993,5.993,0,0,0,259.07,243ZM254,260A6.005,6.005,0,1,1,260,254,6.028,6.028,0,0,1,254,260Zm6.174-10.572a1.776,1.776,0,1,1,1.776-1.776A1.787,1.787,0,0,1,260.169,249.428Z" transform="translate(-243 -243)" fill="#fff"/>
      <path id="Контур_6" data-name="Контур 6" d="M254.9,250.4a4.5,4.5,0,1,0,4.5,4.5A4.5,4.5,0,0,0,254.9,250.4Z" transform="translate(-243.909 -243.909)" fill="#fff"/>
      <path id="Контур_7" data-name="Контур 7" d="M263.293,247.9a.594.594,0,1,0,.593.594A.638.638,0,0,0,263.293,247.9Z" transform="translate(-246.175 -243.79)" fill="#fff"/>
    </g>
  </g>
</svg>
