<svg id="linkedin" xmlns="http://www.w3.org/2000/svg" width="36" height="36" viewBox="0 0 36 36">
  <rect id="Прямоугольник_16" data-name="Прямоугольник 16" width="36" height="36" fill="#390"/>
  <g id="linkedin_hover" transform="translate(19.964 18.705)">
    <path id="Контур_2" data-name="Контур 2" d="M266.993,266.887h0v-8.372c0-4.142-.881-7.315-5.728-7.315a4.932,4.932,0,0,0-4.495,2.468h-.088v-2.115H252.1v15.334h4.759v-7.579c0-2.027.352-3.966,2.82-3.966s2.468,2.291,2.468,4.054v7.491Z" transform="translate(-258.564 -256.576)" fill="#fff"/>
    <path id="Контур_3" data-name="Контур 3" d="M243.4,251.6h4.759v15.334H243.4Z" transform="translate(-255.364 -256.651)" fill="#fff"/>
    <path id="Контур_4" data-name="Контур 4" d="M245.453,243A2.465,2.465,0,0,0,243,245.453a2.535,2.535,0,0,0,2.453,2.532,2.493,2.493,0,0,0,0-4.985Z" transform="translate(-254.964 -254.705)" fill="#fff"/>
  </g>
</svg>
