<svg xmlns="http://www.w3.org/2000/svg" width="14" height="14" viewBox="0 0 14 14"><defs><style>.a{fill:#fff;opacity:0;}.b{fill:#390;}</style></defs><g transform="translate(-684 -441)"><rect class="a" width="14" height="14" transform="translate(684 441)"/><g transform="translate(684 374.733)"><g transform="translate(0.5 68.267)"><g transform="translate(0 0)"><path class="b" d="M30.067,68.267h-13l6.5,5.354,6.573-5.339A.453.453,0,0,0,30.067,68.267Z" transform="translate(-17.067 -68.267)"/></g></g><g transform="translate(0 69.15)"><g transform="translate(0 0)"><path class="b" d="M7.315,103.911a.5.5,0,0,1-.633,0L0,98.406v8.617a.5.5,0,0,0,.5.5h13a.5.5,0,0,0,.5-.5V98.48Z" transform="translate(0 -98.406)"/></g></g></g></g></svg>