<svg xmlns="http://www.w3.org/2000/svg" width="22.326" height="30" viewBox="0 0 22.326 30">
  <g id="ERROR_CHECK" data-name="ERROR CHECK" transform="translate(-18 -959.362)">
    <path id="Контур_105" data-name="Контур 105" d="M18,959.362v30H40.326V964.943H34.744v-5.581H18Zm18.14.7v3.488h3.488Zm-9.255,5.483,1.068.894c-1.324,1.589-2.642,3.185-3.979,4.764l-2.627-2.627.981-.992,1.559,1.559Zm2.627,2.889h7.674v1.4H29.512Zm-2.627,4.786,1.068.894c-1.324,1.589-2.642,3.185-3.979,4.764l-2.627-2.627.981-.992,1.559,1.559,3-3.6Zm2.627,2.889h7.674v1.4H29.512Zm-2.627,4.786,1.068.894c-1.324,1.589-2.642,3.185-3.979,4.764l-2.627-2.627.981-.992,1.559,1.559,3-3.6Zm2.627,2.889h7.674v1.4H29.512Z" transform="translate(0 0)" fill="#fff"/>
  </g>
</svg>
