<svg id="DATA_IMPORT" data-name="DATA IMPORT" xmlns="http://www.w3.org/2000/svg" width="30" height="30" viewBox="0 0 30 30">
  <path id="Контур_15" data-name="Контур 15" d="M21.813,11H19.8a2.887,2.887,0,0,1-.487.388s0,1.387-.025,1.487h2.525a.309.309,0,0,1,.313.313V21H5.875V13.187a.309.309,0,0,1,.313-.313h1.5a3.36,3.36,0,0,1,1-1.012V11h-2.5A2.2,2.2,0,0,0,4,13.187v8.75a2.2,2.2,0,0,0,2.188,2.188h4.637A5.183,5.183,0,0,1,9.9,25.65a.938.938,0,0,0,.663,1.6h6.875a.938.938,0,0,0,.662-1.6,5.026,5.026,0,0,1-.925-1.525h4.638A2.2,2.2,0,0,0,24,21.937v-8.75A2.2,2.2,0,0,0,21.813,11Z" transform="translate(1 2.75)" fill="#fff"/>
  <path id="Контур_16" data-name="Контур 16" d="M30,12.412A7.5,7.5,0,0,1,27.5,18V15.938a4.689,4.689,0,0,0-4.687-4.687h-.937c0-1.716-1.007-2.42-2.575-3.988a3.5,3.5,0,0,0-4.85,0C13.1,8.6,12.412,9.074,12.05,10.187A3.391,3.391,0,0,0,10.5,11.25H7.188A4.689,4.689,0,0,0,2.5,15.938v2.687a6.3,6.3,0,0,1-2.5-5A6.4,6.4,0,0,1,5.75,7.287,9.522,9.522,0,0,1,23.337,4.912,7.593,7.593,0,0,1,30,12.412Z" transform="translate(0)" fill="#fff"/>
  <path id="Контур_17" data-name="Контур 17" d="M16.225,8.837,14.663,7.275a.938.938,0,0,0-1.326,0L11.774,8.837a.938.938,0,0,0,.663,1.6h.625v3.125a.938.938,0,0,0,1.875,0V10.437h.625A.937.937,0,0,0,16.225,8.837Z" transform="translate(2.875 1.75)" fill="#fff"/>
  <path id="Контур_18" data-name="Контур 18" d="M12.563,14.062h-.625V10.938a.938.938,0,0,0-1.875,0v3.125H9.438a.937.937,0,0,0-.663,1.6l1.562,1.563a.936.936,0,0,0,1.325,0l1.562-1.563A.937.937,0,0,0,12.563,14.062Z" transform="translate(2.125 2.5)" fill="#fff"/>
</svg>
