<?xml version="1.0" encoding="utf-8"?>
<!-- Generator: Adobe Illustrator 25.4.1, SVG Export Plug-In . SVG Version: 6.00 Build 0)  -->
<svg version="1.1" id="Layer_1" xmlns="http://www.w3.org/2000/svg" xmlns:xlink="http://www.w3.org/1999/xlink" x="0px" y="0px"
	 viewBox="0 0 2328 426" style="enable-background:new 0 0 2328 426;" xml:space="preserve">
<style type="text/css">
	.st0{fill:#339900;}
	.st1{fill:#0068C6;}
	.st2{fill:#06A1D2;}
	.st3{fill:#262C60;}
	.st4{fill:#FFFFFF;}
	.st5{display:none;opacity:0.7;fill:#CC2E50;}
</style>
<path class="st0" d="M225,285.7l2.4-3.6l-32.1-23.5l-2.5,4.6c-6.8,12.7-15.9,22.2-27.7,29.2c-11.8,6.9-24.1,10.3-37.5,10.3
	c-21.5,0-39.4-8-54.8-24.6c-15.5-16.6-23.1-35.1-23.1-56.4c0-22.8,7.6-42.1,23.1-58.9c15.4-16.7,33.4-24.8,54.8-24.8
	c12.1,0,23.1,2.5,32.5,7.5c9.6,5,18.5,12.5,26.5,22.2l2.8,3.4l30.3-23.4l-3-3.6c-11-13.4-23.7-23.7-37.7-30.7
	c-15.6-7.9-32.9-11.9-51.4-11.9c-31.5,0-59.2,12.1-82.4,35.9C21.2,161.9,9,190.3,9,221.6c0,31.2,12.2,59.2,36.3,83.3
	c23.1,23.2,50.8,34.9,82.3,34.9c20.2,0,39-4.9,55.7-14.6C200,315.5,214,302.3,225,285.7z"/>
<path class="st0" d="M245.5,339.8V11.9h40.1v327.9H245.5z"/>
<path class="st0" d="M493.3,335.3c0,0,0-100.6,0-101c-1.7-31-8.1-57.5-20.9-68.7c-25.1-28.6-78.5-28.6-104,0
	c-62.4,78.1,23.3,180.6,110.4,114.9l-16,50.6c-119.1,45.9-206.6-102-123.6-192c49.1-53.4,150.2-39.7,181.1,27.8
	c7.5,14.6,12.6,42.5,12.6,61.3l-0.3,107H493.3z"/>
<path class="st0" d="M553.3,336.4V111.5h40.1v224.8H553.3z"/>
<path class="st0" d="M704.8,107.4c28.9,0.1,51.8,11.6,68.9,34.7c29.9-43.8,101.4-46.2,134.7-9c20.6,18.1,23.6,60,23.6,102.4
	c0,38.8-0.1,100.9-0.1,100.9h-39.7V200.3c-0.6-30.4-19.6-54.3-49.7-54.1c-30.3-0.2-48.1,22.1-48.8,52.9c0,0,0,137.3,0,137.3H754
	V199.1c-0.8-30-17.2-53.7-49.3-52.9c-37.9,0.9-49.1,34.5-49.1,70.5c0,0-0.1,119.7-0.1,119.7h-39.7l-0.2-100.5
	C615.7,155.9,632.8,107.1,704.8,107.4z"/>
<path class="st1" d="M1124.4,342.6c-91.3,0-171.7-60.3-171.7-170.2S1033,2.6,1125.3,2.6c87.5,0,125.3,45.9,135.8,57.4l-51.2,44.5
	c-13.9-15.3-39.7-37.8-84.6-37.8c-53.1,0-94.2,38.7-94.2,105.7c0,66.9,42.1,105.7,95.6,105.7c53.6,0,68.9-21,68.9-21v-48.8h-69.3
	v-58.8h144.9v136.8C1254.4,301,1215.2,342.6,1124.4,342.6z"/>
<path class="st1" d="M1292,336.4V7.1h213.3v61.6h-136.5V136h128.9v61.6h-128.9v76.4h140.8v62.5H1292z"/>
<g>
	<path class="st2" d="M2074.3,417.6c-3.6,0.1-7.2-0.3-10.7-1.6c-1.6-0.6-3.1-1.3-4.1-2.8c-1.3-1.8-1.5-3.9-0.2-5.7
		c1.2-1.7,3.1-1.9,5-1.1c4.6,1.9,9.2,2.9,14.1,1.8c3.3-0.7,5.4-2.7,5.9-5.6c0.5-3.2-0.6-5.6-3.8-7.4c-1.5-0.9-3.2-1.5-4.8-2.2
		c-2.9-1.2-5.9-2.2-8.8-3.5c-5.6-2.7-8.7-7.1-8.7-13.4c0-6.5,2.8-11.5,8.7-14.4c6.9-3.3,14.2-3.4,21.4-1c1.5,0.5,2.9,1.2,4,2.5
		c1.5,1.7,1.9,3.7,0.6,5.7c-1.2,1.9-3.2,2.2-5.2,1.4c-3.8-1.6-7.6-2.4-11.7-1.9c-3.6,0.5-5.8,2.3-6.3,5.3c-0.5,2.8,0.9,5.2,4.2,6.8
		c4.4,2.2,9.3,3.2,13.6,5.6c10.5,5.7,11.2,20.9,1.4,27.7c-3.6,2.4-7.6,3.5-11.8,3.8C2076.3,417.7,2075.3,417.6,2074.3,417.6z"/>
	<path class="st3" d="M2233.7,385.1c3.7-3,7.5-4.2,11.9-3.3c5.1,1,8.4,4,9.2,9.2c1,6.9,0.4,13.9,0.3,20.9c0,2.2-2,3.4-4.7,3.2
		c-2.3-0.2-4-1.1-4-3.7c-0.1-4.6,0-9.1,0-13.7c0-0.8,0-1.7,0-2.5c-0.2-4.4-2.3-6.6-5.9-6.5c-3.9,0.1-6.7,3.1-6.7,7c0,5,0,10,0,15
		c0,3.1-1.4,4.4-4.4,4.4c-3,0-4.4-1.3-4.4-4.4c0-13,0-26,0-39c0-3,1.5-4.4,4.5-4.4c3,0,4.3,1.4,4.4,4.5
		C2233.8,376,2233.7,380.3,2233.7,385.1z"/>
	<path class="st3" d="M2174.1,400.3c-2.4,0-4.8,0.1-7.2,0c-1.8-0.1-2,0.7-1.5,2.2c1,3.7,3.9,5.9,8.3,6.2c2.4,0.1,4.6-0.4,6.8-1.1
		c1.7-0.5,3.3-0.5,4,1.2c0.8,1.9,0,3.5-1.7,4.5c-4.2,2.4-8.9,2.7-13.5,2c-7.4-1.1-11.8-5.8-12.8-13.4c-1.3-10.1,4-18.4,12.8-20.2
		c9.8-1.9,17.2,4.1,17,13.9c-0.1,3.1-1.5,4.6-4.6,4.7C2179.2,400.3,2176.7,400.3,2174.1,400.3z M2171.4,394.7c1.7,0,3.3,0,5,0
		c1.3,0.1,1.6-0.5,1.3-1.7c-0.6-2.9-2.5-4.9-5-5.3c-2.6-0.4-5.2,1-6.6,3.6c-1.6,3-1.4,3.4,1.9,3.4
		C2169.2,394.7,2170.3,394.7,2171.4,394.7z"/>
	<path class="st3" d="M2134.4,395.3c0-4.9-0.1-9.9,0.1-14.8c0.1-2.3-0.7-2.8-2.8-2.7c-2.3,0.2-4.6,0-7,0c-2.5,0-3.6-1.4-3.6-3.7
		c0-2.3,1-3.6,3.6-3.6c9.4,0,18.8,0,28.2,0c2.4,0,3.6,1.1,3.8,3.5c0.1,2.5-1.1,3.7-3.7,3.8c-2.3,0.1-4.7,0.2-7,0
		c-2-0.2-2.7,0.4-2.7,2.6c0.1,9.9,0.1,19.9,0.1,29.8c0,3.7-1.6,5.1-5.1,4.8c-2.6-0.2-3.8-1.5-3.8-4.2
		C2134.5,405.7,2134.4,400.5,2134.4,395.3z"/>
	<path d="M1813.1,408.9c2.3-7.2,4.3-13.5,6.3-19.9c0.5-1.7,1.2-2.3,3-2.3c1.9,0,2.3,0.8,2.7,2.3c1.9,6.3,3.8,12.6,5.8,18.9
		c1,0,0.7-0.9,0.9-1.4c1.7-5.9,3.3-11.8,4.9-17.7c0.5-1.7,3.8-2.9,5.1-1.9c0.7,0.5,0.2,1,0,1.5c-2.6,8.2-5.3,16.4-7.9,24.6
		c-0.6,1.9-1.9,1.2-3.1,1.4c-1.4,0.2-2.2-0.2-2.6-1.7c-1.9-6.4-4-12.7-6.2-19.7c-1.1,3.4-1.9,6.4-2.9,9.3c-1.1,3.4-2.5,6.8-3.4,10.3
		c-0.6,2.2-2,1.6-3.4,1.8c-1.7,0.2-2.1-0.7-2.6-2.1c-2.3-7.7-4.6-15.3-6.9-22.9c-0.2-0.8-1.4-2.3,0.1-2.4c1.5-0.1,3.9-1.5,4.6,1.3
		c1.5,5.7,3,11.5,4.5,17.2C1812.4,406.4,1812.7,407.3,1813.1,408.9z"/>
	<path d="M1971.3,390.7c2.4-2.4,4.4-3.8,6.9-4.3c6-1.1,10.9,1.6,13.1,7.3c1.6,4.1,1.5,8.4,0.2,12.6c-2.5,8.3-13.2,12.5-20.4,4.7
		c-0.9,0.3-0.6,1.1-0.6,1.6c0.1,2.5-1.7,1.6-2.9,1.7c-1.7,0.3-1.6-0.8-1.6-2c0.1-12,0.1-24,0-36c0-2.3,0.8-2.5,2.7-2.5
		c1.9,0,2.6,0.5,2.5,2.5C1971.1,380.9,1971.3,385.4,1971.3,390.7z M1971.2,400.6c0,0.8,0,1.7,0,2.5c0.2,4.1,2.8,7.3,6.5,7.8
		c3.9,0.6,7.3-1.4,8.7-5.3c1.2-3.5,1.3-7.1-0.3-10.6c-1.5-3.4-4.3-5.1-7.7-4.8c-3.3,0.3-6,2.6-6.9,5.9
		C1971.2,397.6,1971.2,399.1,1971.2,400.6z"/>
	<path d="M1941.3,410.2c-2.2,2.5-4.2,4.1-6.8,4.6c-6,1.3-11.4-1.9-13.5-8c-1.5-4.3-1.3-8.6,0.3-12.8c2.4-6.5,11-11.4,19.6-4.5
		c0-4.5,0-8.7,0-12.9c0-2.4,2.3-3.8,4.6-2.7c0.8,0.4,0.6,1.1,0.6,1.7c0,12.4,0,24.9,0.1,37.3c0,1.7-0.9,1.6-1.9,1.5
		c-1-0.1-2.6,0.8-2.6-1.4C1941.4,412.4,1941.4,411.7,1941.3,410.2z M1940.9,400.6c-0.1-1.5-0.1-3-0.4-4.4c-0.6-3.1-3-5.4-6-5.8
		c-3.3-0.5-6,0.6-7.6,3.5c-2.5,4.4-2.6,9.1-0.2,13.5c1.6,2.9,4.3,4,7.5,3.6c3.1-0.4,5.1-2.4,6.1-5.4
		C1941,403.9,1940.8,402.3,1940.9,400.6z"/>
	<path class="st3" d="M2192.1,399.6c0.1-12.8,9.7-20.8,21.1-17.6c1.1,0.3,2.1,0.7,3,1.4c1.5,1.2,1.8,2.9,1,4.5
		c-0.8,1.7-2.4,1.8-4.1,1.3c-5.5-1.6-8.1-1-10.4,2.4c-2.6,3.9-2.5,10.6,0.2,14c2.6,3.1,6,3.5,9.6,2.5c1.9-0.5,3.9-1.7,4.9,1.1
		c0.8,2.5-0.7,4-2.8,5C2203.8,419.4,2192,411.8,2192.1,399.6z"/>
	<path d="M1745.6,395.6c0-5.7,0-11.5,0-17.2c0-1.5,0.4-2.1,2-2.2c4.5-0.4,9.1-0.9,13.5,0.2c4.4,1.1,7.5,3.8,8.1,8.4
		c0.7,4.9-0.5,9.2-4.9,12.1c-3.4,2.2-7.3,2.7-11.2,2.4c-2-0.2-2.5,0.4-2.4,2.4c0.2,3.5-0.1,7.1,0.1,10.6c0.1,2.3-1.1,2.2-2.7,2.2
		c-1.5,0-2.6,0-2.5-2.1C1745.7,406.8,1745.6,401.2,1745.6,395.6z M1750.6,387.4c0,0.9,0,1.9,0,2.8c0,5.5,0.3,5.7,5.8,5.1
		c0.3,0,0.6-0.1,0.8-0.1c4.2-0.8,6.6-3.1,7-6.9c0.6-5.4-2.6-8.5-8.7-8.6c-4.9-0.1-4.9-0.1-4.9,4.7
		C1750.6,385.4,1750.6,386.4,1750.6,387.4z"/>
	<path class="st2" d="M2051.8,399.1c0,4.4,0,8.9,0,13.3c0,3.3-1.8,4.7-5.7,4.8c-4,0-5.8-1.4-5.8-4.7c0-9.1,0-18.2,0-27.2
		c0-3.2,1.9-4.7,5.9-4.7c3.8,0,5.7,1.6,5.7,4.9C2051.9,390,2051.9,394.6,2051.8,399.1C2051.9,399.1,2051.9,399.1,2051.8,399.1z"/>
	<path class="st2" d="M2113.9,399c0,4.5,0,9.1,0,13.6c0,3.2-1.7,4.5-5.6,4.6c-3.9,0-5.8-1.2-5.8-4.4c-0.1-9.2-0.1-18.4-0.1-27.6
		c0-3.3,1.9-4.6,6-4.6c3.9,0,5.5,1.4,5.6,4.6C2113.9,389.9,2113.9,394.4,2113.9,399z"/>
	<path d="M1997.5,422.3c2.9-1.3,5-3.5,6.6-6.2c1-1.7,1-3.2,0.2-5c-3-7.4-5.9-14.8-9-22.2c-0.8-1.9-0.3-2,1.5-2.2
		c2.5-0.2,3.7,0.6,4.5,3.1c1.9,6,4.3,11.8,6.6,18.3c2.2-6.6,4.3-12.8,6.4-18.9c0.7-2.1,3.5-3.3,5.4-2.4c0.8,0.4,0.5,0.9,0.3,1.4
		c-4.2,10.3-7.2,21.1-12.6,30.9c-1.8,3.3-4.5,5.9-8.1,7.4"/>
	<path d="M1799.4,400.8c-0.1,8.7-5.7,14.5-14,14.4c-7.9-0.1-13.2-6-13.1-14.6c0.2-8.8,5.7-14.4,14-14.3
		C1794.3,386.3,1799.5,392.1,1799.4,400.8z M1794.2,401.1c0-2.4-0.4-4.4-1.2-6.1c-1.4-3-3.6-4.9-7.1-4.9c-3.4,0-5.8,1.8-7.2,4.8
		c-1.3,2.7-1.5,5.5-1,8.4c0.8,4.8,4.2,8.1,8.2,8c3.9,0,7.1-3.1,8-7.9C1794.1,402.4,1794.1,401.5,1794.2,401.1z"/>
	<path d="M1859.3,401.6c-2.7,0-5.4,0-8.1,0c-1.4,0-1.7,0.6-1.5,1.9c0.5,4.1,3.6,7.1,7.8,7.5c2.6,0.2,5.2,0.1,7.7-0.8
		c0.9-0.3,1.6-0.5,1.8,0.8c0.1,1,1.1,2-0.5,2.8c-6.1,3.2-16.2,1-19.7-4.5c-3.9-6.3-2.3-16.5,3.4-20.8c3.7-2.8,9.6-3.1,13.4-0.8
		c3.6,2.2,6.2,8.4,5.4,12.7c-0.2,1.2-0.9,1.2-1.7,1.2C1864.7,401.6,1862,401.6,1859.3,401.6z M1857,398c1.8,0,3.5-0.1,5.3,0
		c1.7,0.1,2.1-0.5,1.8-2.1c-0.6-3.8-3.4-6.2-7.1-6.1c-3.5,0.2-7,3.6-7.2,7c-0.1,1.2,0.6,1.1,1.4,1.2C1853.1,398,1855,398,1857,398z"
		/>
	<path d="M1905.9,401.6c-2.6,0-5.2,0.1-7.8,0c-1.6-0.1-1.9,0.6-1.7,2c0.5,4,3.6,7,7.8,7.4c2.6,0.2,5.2,0.1,7.7-0.8
		c0.9-0.3,1.7-0.4,1.8,0.8c0.1,1,1.2,2-0.5,2.8c-6,3.1-15.8,1.1-19.3-4c-4-5.7-3-15.6,2-20.3c3.6-3.4,9.7-4.3,14-2.1
		c4,2.1,6.7,8.1,6,12.9c-0.2,1.4-1,1.3-1.9,1.3C1911.2,401.6,1908.6,401.6,1905.9,401.6z M1903.5,398c1.9,0,3.7-0.1,5.6,0
		c1.6,0.1,1.9-0.5,1.7-2c-0.5-3.4-2.7-5.8-5.9-6.2c-3.4-0.4-6.3,1.4-7.8,5c-1.2,2.9-1,3.1,2,3.1C1900.6,398,1902.1,398,1903.5,398z"
		/>
	<path d="M1880,391.2c1.6-2.3,3.3-4.5,6.2-4.7c1-0.1,2.7-1,2.7,1.1c0,1.4,1.3,3.6-2,3.6c-3.9,0.1-6.4,3.4-6.6,8.3
		c-0.1,4.1,0,8.2,0,12.3c0,2.8-1.3,3.7-4.1,3c-1-0.3-0.9-1-0.9-1.7c0-8.2,0-16.3-0.2-24.5c0-1.6,0.8-1.7,1.9-1.5
		c1,0.2,2.6-0.8,2.6,1.4C1879.6,389.1,1879.4,390.1,1880,391.2z"/>
	<path class="st2" d="M2053.1,367.1c0,4-3.2,7.2-7.3,7.1c-3.9-0.1-7-3.3-7.1-7.1c0-3.9,3.2-7.2,7.2-7.3
		C2049.9,359.8,2053.1,363,2053.1,367.1z"/>
	<path class="st2" d="M2108,374.1c-4.1-0.1-7.2-3.3-7.1-7.4c0.1-3.9,3.3-7,7.2-7c4,0,7.2,3.4,7.1,7.4
		C2115.2,371.1,2111.9,374.2,2108,374.1z"/>
</g>
<path class="st1" d="M1744.4,336.5l-144.6-223.4c0,0,1.4,39.6,1.4,74.5v148.9h-75.4V7.1h82.6l141.3,221.5c0,0-1.4-37.2-1.4-72.1V7.1
	h75.4v329.4H1744.4z"/>
<path class="st1" d="M1843.9,336.5V7.1h77v329.4H1843.9z"/>
<rect x="2178.3" y="158.2" transform="matrix(4.542861e-11 -1 1 4.542861e-11 2020.0742 2366.4819)" class="st1" width="30" height="30"/>
<rect x="2208.3" y="128.3" transform="matrix(4.597573e-11 -1 1 4.597573e-11 2079.9751 2366.4819)" class="st0" width="30" height="30"/>
<rect x="2238.2" y="278" transform="matrix(4.476070e-11 -1 1 4.476070e-11 1960.1735 2546.1843)" class="st1" width="30" height="30"/>
<rect x="2238.2" y="218.1" transform="matrix(4.433526e-11 -1 1 4.433526e-11 2020.0742 2486.2834)" class="st1" width="30" height="30"/>
<rect x="2238.2" y="68.4" transform="matrix(4.482110e-11 -1 1 4.482110e-11 2169.8262 2336.5315)" class="st1" width="30" height="30"/>
<rect x="2268.2" y="158.2" transform="matrix(4.427487e-11 -1 1 4.427487e-11 2109.9255 2456.333)" class="st1" width="30" height="30"/>
<rect x="2298.1" y="248.1" transform="matrix(4.378903e-11 -1 1 4.378903e-11 2050.0247 2576.1345)" class="st0" width="30" height="30"/>
<rect x="2298.1" y="128.6" transform="matrix(4.427487e-11 -1 1 4.427487e-11 2169.4878 2456.6716)" class="st0" width="30" height="30"/>
<rect x="2298.1" y="68.4" transform="matrix(4.433526e-11 -1 1 4.433526e-11 2229.7271 2396.4324)" class="st1" width="30" height="30"/>
<g>
	<path class="st1" d="M2209.4,265.5l-31.3-48.9l-32.6-51L2248.1,7.1h-91.7l-61.6,108.4L2033.3,7.1h-91.7l102.2,158.5l-109.3,170.9
		h92.1l68.3-122.7l67.8,122.7h92.1L2209.4,265.5z"/>
</g>
<rect x="2268.2" y="8.5" transform="matrix(4.530693e-11 -1 1 4.530693e-11 2259.6772 2306.5813)" class="st0" width="30" height="30"/>
<rect x="553.5" y="31.4" transform="matrix(4.534157e-11 -1 1 4.534157e-11 522.0382 624.9315)" class="st0" width="40" height="40"/>
<rect x="2268.2" y="308" transform="matrix(4.591445e-11 -1 1 4.591445e-11 1960.1735 2606.085)" class="st0" width="30" height="30"/>
<g>
	
		<rect x="1868.4" y="97.2" transform="matrix(4.539841e-11 -1 1 4.539841e-11 1771.1792 1995.5342)" class="st4" width="30" height="30"/>
	
		<rect x="1885.1" y="298.7" transform="matrix(4.488238e-11 -1 1 4.488238e-11 1586.4023 2213.7812)" class="st4" width="30" height="30"/>
	
		<rect x="1860.9" y="213.5" transform="matrix(4.430507e-11 -1 1 4.430507e-11 1647.4043 2104.323)" class="st4" width="30" height="30"/>
	
		<rect x="1849.9" y="17.5" transform="matrix(4.488238e-11 -1 1 4.488238e-11 1832.3971 1897.3047)" class="st4" width="30" height="30"/>
	
		<rect x="1890.8" y="183.3" transform="matrix(4.430507e-11 -1 1 4.430507e-11 1707.521 2104.1069)" class="st4" width="30" height="30"/>
</g>
<g>
	<g>
		
			<rect x="1565.6" y="176.4" transform="matrix(4.445695e-11 -1 1 4.445695e-11 1389.2251 1771.9541)" class="st4" width="30" height="30"/>
		
			<rect x="1565.6" y="257.4" transform="matrix(4.445695e-11 -1 1 4.445695e-11 1308.1842 1852.9951)" class="st4" width="30" height="30"/>
		
			<rect x="1531.3" y="94.9" transform="matrix(4.591445e-11 -1 1 4.591445e-11 1436.3424 1656.126)" class="st4" width="30" height="30"/>
		
			<rect x="1535.7" y="287.6" transform="matrix(4.524654e-11 -1 1 4.524654e-11 1248.0675 1853.2109)" class="st4" width="30" height="30"/>
	</g>
	<g>
		
			<rect x="1630.8" y="115.8" transform="matrix(4.536822e-11 -1 1 4.536822e-11 1515.0083 1776.5969)" class="st4" width="30" height="30"/>
		
			<rect x="1738.1" y="257.6" transform="matrix(4.533802e-11 -1 1 4.533802e-11 1480.4369 2025.6797)" class="st4" width="30" height="30"/>
		
			<rect x="1680.8" y="185.6" transform="matrix(4.485130e-11 -1 1 4.485130e-11 1495.1853 1896.3984)" class="st4" width="30" height="30"/>
		
			<rect x="1757" y="163.2" transform="matrix(4.430507e-11 -1 1 4.430507e-11 1593.8467 1950.1451)" class="st4" width="30" height="30"/>
		
			<rect x="1787" y="133.6" transform="matrix(4.433526e-11 -1 1 4.433526e-11 1653.4091 1950.4835)" class="st4" width="30" height="30"/>
		
			<rect x="1782.6" y="51.3" transform="matrix(4.439655e-11 -1 1 4.439655e-11 1731.2687 1863.8137)" class="st4" width="30" height="30"/>
		
			<rect x="1766.9" y="287.6" transform="matrix(4.536822e-11 -1 1 4.536822e-11 1479.3357 2084.479)" class="st4" width="30" height="30"/>
	</g>
</g>
<g>
	
		<rect x="1969.4" y="292.9" transform="matrix(4.533802e-11 -1 1 4.533802e-11 1676.4642 2292.1887)" class="st4" width="30" height="30"/>
	
		<rect x="2018.9" y="248.4" transform="matrix(4.485130e-11 -1 1 4.485130e-11 1770.5045 2297.2632)" class="st4" width="30" height="30"/>
	
		<rect x="2036.5" y="83.2" transform="matrix(4.375884e-11 -1 1 4.375884e-11 1953.2948 2149.7139)" class="st4" width="30" height="30"/>
	
		<rect x="2053.3" y="174.2" transform="matrix(4.430507e-11 -1 1 4.430507e-11 1879.0774 2257.4014)" class="st4" width="30" height="30"/>
	
		<rect x="2083.2" y="144.6" transform="matrix(4.488238e-11 -1 1 4.488238e-11 1938.6398 2257.7397)" class="st4" width="30" height="30"/>
	
		<rect x="1983.9" y="23.3" transform="matrix(4.539841e-11 -1 1 4.539841e-11 1960.5502 2037.1677)" class="st4" width="30" height="30"/>
</g>
<g>
	
		<rect x="2129.6" y="92.8" transform="matrix(4.445695e-11 -1 1 4.445695e-11 2036.8417 2252.3772)" class="st4" width="30" height="30"/>
	
		<rect x="2183" y="293.1" transform="matrix(4.439655e-11 -1 1 4.439655e-11 1889.8883 2506.0608)" class="st4" width="30" height="30"/>
	
		<rect x="2131.5" y="213.8" transform="matrix(5.471792e-13 -1 1 5.471792e-13 1917.6361 2375.2249)" class="st4" width="30" height="30"/>
	
		<rect x="2174.9" y="26.8" transform="matrix(1.153805e-12 -1 1 1.153805e-12 2148.0889 2231.5752)" class="st4" width="30" height="30"/>
</g>
<rect x="1578.3" y="32.3" transform="matrix(4.539841e-11 -1 1 4.539841e-11 1545.9551 1640.4965)" class="st4" width="30" height="30"/>
<rect x="-2707.3" y="3428.5" class="st5" width="99.3" height="251.9"/>
</svg>
