<?xml version="1.0" encoding="utf-8"?>
<!-- Generator: Adobe Illustrator 25.3.1, SVG Export Plug-In . SVG Version: 6.00 Build 0)  -->
<svg version="1.1" id="Слой_1" xmlns="http://www.w3.org/2000/svg" xmlns:xlink="http://www.w3.org/1999/xlink" x="0px" y="0px"
	 viewBox="0 0 160 160" style="enable-background:new 0 0 160 160;" xml:space="preserve">
<style type="text/css">
	.st0{fill:#FFFFFF;}
</style>
<path class="st0" d="M159.9,78.4h-11.7h-40.1c0.1,1.1,0.2,2.2,0.2,3.3c0,15.5-12.7,28.2-28.3,28.2S51.7,97.3,51.7,81.7
	S64.4,53.5,80,53.5c7.4,0,14.1,2.8,19.1,7.4l8.5-8c-7.2-6.8-16.9-11-27.6-11c-21,0-38.1,16.1-39.8,36.5H11.8
	C12.7,41.7,42.9,12.1,80,12.1c18.9,0,36.1,7.7,48.4,20.1l8.8-7.7c-14.5-14.8-34.8-24-57.2-24C35.9,0.5,0.1,36.1,0.1,80.1
	s35.8,79.6,79.9,79.6s79.9-35.6,79.9-79.6C159.9,79.5,159.9,79,159.9,78.4z M80,148.1c-34.3,0-62.7-25.3-67.5-58h28.4
	c3.8,18,19.9,31.5,39.1,31.5S115.3,108,119.1,90h28.4C142.7,122.8,114.3,148.1,80,148.1z"/>
</svg>
