<?xml version="1.0" encoding="utf-8"?>
<!-- Generator: Adobe Illustrator 25.3.1, SVG Export Plug-In . SVG Version: 6.00 Build 0)  -->
<svg version="1.1" id="Слой_1" xmlns="http://www.w3.org/2000/svg" xmlns:xlink="http://www.w3.org/1999/xlink" x="0px" y="0px"
	 viewBox="0 0 1920 280" style="enable-background:new 0 0 1920 280;" xml:space="preserve">
<style type="text/css">
	.st0{fill:#FFFFFF;}
</style>
<rect x="1787.4" y="127.3" transform="matrix(4.543039e-11 -1 1 4.543039e-11 1660.1497 1939.3184)" class="st0" width="24.7" height="24.7"/>
<rect x="1812.1" y="102.6" transform="matrix(4.616758e-11 -1 1 4.616758e-11 1709.4785 1939.3184)" class="st0" width="24.7" height="24.7"/>
<rect x="1836.7" y="225.9" transform="matrix(4.498719e-11 -1 1 4.498719e-11 1610.8209 2087.3049)" class="st0" width="24.7" height="24.7"/>
<rect x="1836.7" y="176.6" transform="matrix(4.425000e-11 -1 1 4.425000e-11 1660.1497 2037.976)" class="st0" width="24.7" height="24.7"/>
<rect x="1836.7" y="53.3" transform="matrix(4.498719e-11 -1 1 4.498719e-11 1783.4718 1914.6539)" class="st0" width="24.7" height="24.7"/>
<rect x="1861.4" y="127.3" transform="matrix(4.454487e-11 -1 1 4.454487e-11 1734.1429 2013.3116)" class="st0" width="24.7" height="24.7"/>
<rect x="1886.1" y="201.2" transform="matrix(4.395512e-11 -1 1 4.395512e-11 1684.8141 2111.9692)" class="st0" width="24.7" height="24.7"/>
<rect x="1886.1" y="102.9" transform="matrix(4.425000e-11 -1 1 4.425000e-11 1783.1931 2013.5903)" class="st0" width="24.7" height="24.7"/>
<rect x="1886.1" y="53.3" transform="matrix(4.439744e-11 -1 1 4.439744e-11 1832.8005 1963.9828)" class="st0" width="24.7" height="24.7"/>
<rect x="1861.4" y="3.9" transform="matrix(4.543039e-11 -1 1 4.543039e-11 1857.465 1889.9895)" class="st0" width="24.7" height="24.7"/>
<rect x="1861.4" y="250.6" transform="matrix(4.587270e-11 -1 1 4.587270e-11 1610.8209 2136.6335)" class="st0" width="24.7" height="24.7"/>
<path class="st0" d="M178.8,233.2l2-3l-26.4-19.4l-2,3.8c-5.6,10.5-13.1,18.3-22.8,24c-9.7,5.7-19.8,8.5-30.9,8.5
	c-17.7,0-32.4-6.6-45.2-20.2c-12.8-13.7-19-28.9-19-46.5c0-18.8,6.2-34.7,19-48.5c12.7-13.8,27.5-20.5,45.1-20.5
	c10,0,19,2.1,26.8,6.2c7.9,4.1,15.2,10.3,21.8,18.3l2.3,2.8l25-19.3l-2.5-3c-9.1-11-19.5-19.5-31.1-25.3
	c-12.8-6.5-27.1-9.8-42.3-9.8c-25.9,0-48.8,9.9-67.8,29.5C11,131.2,1,154.6,1,180.4C1,206.1,11,229.1,30.9,249
	c19.1,19.1,41.9,28.7,67.8,28.7c16.6,0,32.1-4.1,45.9-12C158.2,257.7,169.8,246.8,178.8,233.2z"/>
<path class="st0" d="M195.8,277.7V7.7h33.1v270H195.8z"/>
<path class="st0" d="M399.8,274c0,0,0-82.9,0-83.2c-1.4-25.5-6.7-47.4-17.2-56.6c-20.7-23.6-64.7-23.5-85.6,0
	c-51.4,64.3,19.2,148.7,90.9,94.6l-13.1,41.7c-98.1,37.8-170.1-84-101.8-158.1c40.5-44,123.7-32.7,149.1,22.9
	c6.2,12,10.4,35,10.4,50.5l-0.3,88.1H399.8z"/>
<path class="st0" d="M449.2,274.9V89.7h33.1v185.2H449.2z"/>
<path class="st0" d="M573.9,86.4c23.8,0.1,42.7,9.5,56.7,28.5c24.6-36,83.5-38,111-7.4c17,14.9,19.4,49.4,19.4,84.3
	c0,31.9-0.1,83.1-0.1,83.1h-32.7V162.8c-0.5-25-16.1-44.7-40.9-44.6c-25-0.2-39.6,18.2-40.2,43.6c0,0,0,113,0,113h-32.7v-113
	c-0.7-24.7-14.2-44.2-40.6-43.6c-31.2,0.8-40.5,28.4-40.5,58.1c0,0-0.1,98.6-0.1,98.6h-32.7l-0.2-82.8
	C500.5,126.3,514.7,86.1,573.9,86.4z"/>
<path class="st0" d="M919.5,280c-75.2,0-141.4-49.6-141.4-140.2S844.3,0,920.3,0c72.1,0,103.2,37.8,111.8,47.3L990,83.9
	c-11.4-12.6-32.7-31.1-69.7-31.1c-43.7,0-77.6,31.9-77.6,87c0,55.1,34.7,87,78.8,87c44.1,0,56.7-17.3,56.7-17.3v-40.2h-57.1v-48.4
	h119.3v112.6C1026.6,245.7,994.3,280,919.5,280z"/>
<path class="st0" d="M1057.5,274.9V3.7h175.7v50.7h-112.4v55.4h106.1v50.7h-106.1v62.9h115.9v51.5H1057.5z"/>
<path class="st0" d="M1430.1,275L1311,91c0,0,1.2,32.6,1.2,61.3V275H1250V3.7h68l116.4,182.4c0,0-1.2-30.7-1.2-59.4V3.7h62.1V275
	H1430.1z"/>
<path class="st0" d="M1512.1,275V3.7h63.4V275H1512.1z"/>
<g>
	<path class="st0" d="M1813,216.5l-25.8-40.3l-26.9-42l84.5-130.5h-75.5L1718.7,93L1668,3.7h-75.5l84.1,130.5l-90,140.7h75.9
		l56.2-101l55.8,101h75.9L1813,216.5z"/>
</g>
<rect x="449.3" y="23.8" transform="matrix(4.529361e-11 -1 1 4.529361e-11 425.5703 506.0688)" class="st0" width="33" height="33"/>
</svg>
