<svg id="arrow_default" xmlns="http://www.w3.org/2000/svg" width="40" height="40" viewBox="0 0 40 40">
  <rect id="Rectangle_23" data-name="Rectangle 23" width="40" height="40" fill="#fff" opacity="0"/>
  <g id="down-arrow_1_" data-name="down-arrow (1)" transform="translate(-84.698 28) rotate(-90)">
    <g id="Group_13" data-name="Group 13" transform="translate(0 100.698)">
      <path id="Path_12" data-name="Path 12" d="M14.76,101.45l-.491-.5a.813.813,0,0,0-1.161,0l-5.6,5.694-5.611-5.7a.814.814,0,0,0-1.16,0l-.491.5a.844.844,0,0,0,0,1.179l6.681,6.811a.833.833,0,0,0,.582.267h0a.833.833,0,0,0,.58-.267l6.675-6.793a.849.849,0,0,0,.24-.6A.84.84,0,0,0,14.76,101.45Z" transform="translate(0 -100.698)" fill="#666"/>
    </g>
  </g>
</svg>
