<svg xmlns="http://www.w3.org/2000/svg" width="13.001" height="13.16" viewBox="0 0 26.001 20.16">
  <g id="Без_названия_11_" data-name="Без названия (11)" transform="translate(-10.999 -13.92)">
    <path id="Контур_97" data-name="Контур 97" d="M29.76,21.12c0-4-4.19-7.2-9.36-7.2S11,17.14,11,21.12a6.08,6.08,0,0,0,1.71,4.14,10,10,0,0,1-1.61,2.45.36.36,0,0,0,.26.61,7.82,7.82,0,0,0,4-1.13,11.43,11.43,0,0,0,5,1.13C25.57,28.32,29.76,25.1,29.76,21.12Z" fill="#339900"/>
    <path id="Контур_98" data-name="Контур 98" d="M35.25,31A6.08,6.08,0,0,0,37,26.88c0-3-2.41-5.59-5.82-6.66a6.58,6.58,0,0,1,.06.9c0,4.77-4.85,8.64-10.8,8.64A13.39,13.39,0,0,1,19,29.67c1.42,2.59,4.75,4.41,8.63,4.41a11.29,11.29,0,0,0,5-1.13,7.82,7.82,0,0,0,4,1.13.37.37,0,0,0,.33-.22.36.36,0,0,0-.07-.39A10,10,0,0,1,35.25,31Z" fill="#339900"/>
  </g>
</svg>
