<svg id="ALL-IN-ONE_SOLUTION" data-name="ALL-IN-ONE SOLUTION" xmlns="http://www.w3.org/2000/svg" width="50" height="50" viewBox="0 0 50 50">
  <path id="Контур_410" data-name="Контур 410" d="M0,0H50V50H0Z" fill="none"/>
  <path id="Контур_411" data-name="Контур 411" d="M8.333,8.167h37.5V4H8.333A4.179,4.179,0,0,0,4.167,8.167V31.083H0v6.25H29.167v-6.25H8.333Zm39.583,4.167h-12.5a2.089,2.089,0,0,0-2.083,2.083V35.25a2.089,2.089,0,0,0,2.083,2.083h12.5A2.089,2.089,0,0,0,50,35.25V14.417A2.089,2.089,0,0,0,47.917,12.333Zm-2.083,18.75H37.5V16.5h8.333Z" transform="translate(0 4.333)" fill="#666"/>
</svg>
