<svg id="FLEXIBLE_IMPLEMENTATION" data-name="FLEXIBLE IMPLEMENTATION" xmlns="http://www.w3.org/2000/svg" width="50" height="50" viewBox="0 0 50 50">
  <path id="Контур_420" data-name="Контур 420" d="M0,0H50V50H0Z" fill="none"/>
  <path id="Контур_421" data-name="Контур 421" d="M41.667,34.25a4.161,4.161,0,0,0,4.146-4.167l.021-22.917A4.179,4.179,0,0,0,41.667,3H8.333A4.179,4.179,0,0,0,4.167,7.167V30.083A4.179,4.179,0,0,0,8.333,34.25H0a4.179,4.179,0,0,0,4.167,4.167H45.833A4.179,4.179,0,0,0,50,34.25ZM8.333,7.167H41.667V30.083H8.333ZM25,36.333a2.083,2.083,0,1,1,2.083-2.083A2.089,2.089,0,0,1,25,36.333Z" transform="translate(0 3.25)" fill="#666"/>
</svg>
