<svg id="OVER_8_000_PAYERS" data-name="OVER 8,000 PAYERS" xmlns="http://www.w3.org/2000/svg" width="50" height="50" viewBox="0 0 50 50">
  <g id="Сгруппировать_1045" data-name="Сгруппировать 1045">
    <rect id="Прямоугольник_452" data-name="Прямоугольник 452" width="50" height="50" fill="none"/>
  </g>
  <g id="Сгруппировать_1046" data-name="Сгруппировать 1046" transform="translate(4.167 4.167)">
    <path id="Контур_414" data-name="Контур 414" d="M22.833,2A20.833,20.833,0,1,0,43.667,22.833,20.841,20.841,0,0,0,22.833,2Zm0,37.5A16.667,16.667,0,1,1,39.5,22.833,16.689,16.689,0,0,1,22.833,39.5Zm1.854-18.542c-3.708-1.229-5.5-2-5.5-3.958,0-2.125,2.312-2.9,3.771-2.9A4.025,4.025,0,0,1,26.917,16.9l3.292-1.4a7.136,7.136,0,0,0-5.542-4.646V8.25H21.021v2.625a6.425,6.425,0,0,0-5.458,6.167c0,4.729,4.688,6.062,6.979,6.9,3.292,1.167,4.75,2.229,4.75,4.229,0,2.354-2.187,3.354-4.125,3.354-3.792,0-4.875-3.9-5-4.354l-3.458,1.4A8.41,8.41,0,0,0,21,34.729v2.688h3.646V34.833c1.083-.187,6.292-1.229,6.292-6.708C30.958,25.229,29.688,22.688,24.688,20.958Z" transform="translate(-2 -2)" fill="#666"/>
  </g>
</svg>
