<svg id="SECURITY" xmlns="http://www.w3.org/2000/svg" width="50" height="50" viewBox="0 0 50 50">
  <g id="Сгруппировать_1047" data-name="Сгруппировать 1047">
    <path id="Контур_415" data-name="Контур 415" d="M0,0H50V50H0Z" fill="none"/>
    <path id="Контур_416" data-name="Контур 416" d="M0,0H50V50H0Z" fill="none" opacity="0.87"/>
  </g>
  <path id="Контур_417" data-name="Контур 417" d="M33.167,15.583H31.083V11.417a10.417,10.417,0,1,0-20.833,0v4.167H8.167A4.179,4.179,0,0,0,4,19.75V40.583A4.179,4.179,0,0,0,8.167,44.75h25a4.179,4.179,0,0,0,4.167-4.167V19.75A4.179,4.179,0,0,0,33.167,15.583Zm-18.75-4.167a6.25,6.25,0,1,1,12.5,0v4.167h-12.5Zm18.75,29.167h-25V19.75h25Zm-12.5-6.25A4.167,4.167,0,1,0,16.5,30.167,4.179,4.179,0,0,0,20.667,34.333Z" transform="translate(4.333 1.083)" fill="#666"/>
</svg>
