<svg id="EASY-TO-USE_CLIENT" data-name="EASY-TO-USE CLIENT" xmlns="http://www.w3.org/2000/svg" width="50" height="50" viewBox="0 0 50 50">
  <path id="Контур_418" data-name="Контур 418" d="M0,0H50V50H0Z" fill="none"/>
  <path id="Контур_419" data-name="Контур 419" d="M38.019,24.875a16.235,16.235,0,0,0,.146-2.042,16.236,16.236,0,0,0-.146-2.042l4.4-3.437a1.051,1.051,0,0,0,.25-1.333L38.5,8.813a1.041,1.041,0,0,0-.917-.521.973.973,0,0,0-.354.063L32.04,10.438A15.221,15.221,0,0,0,28.519,8.4l-.792-5.521A1.016,1.016,0,0,0,26.707,2H18.373a1.016,1.016,0,0,0-1.021.875L16.561,8.4a16.006,16.006,0,0,0-3.521,2.042L7.853,8.354a1.18,1.18,0,0,0-.375-.062,1.032,1.032,0,0,0-.9.521L2.415,16.021a1.027,1.027,0,0,0,.25,1.333l4.4,3.438a16.522,16.522,0,0,0-.146,2.042,16.522,16.522,0,0,0,.146,2.042l-4.4,3.438a1.051,1.051,0,0,0-.25,1.333l4.167,7.208a1.041,1.041,0,0,0,.917.521.973.973,0,0,0,.354-.062l5.188-2.083a15.221,15.221,0,0,0,3.521,2.042l.792,5.521a1.016,1.016,0,0,0,1.021.875h8.333a1.016,1.016,0,0,0,1.021-.875l.792-5.521a16.006,16.006,0,0,0,3.521-2.042l5.188,2.083a1.18,1.18,0,0,0,.375.063,1.032,1.032,0,0,0,.9-.521l4.167-7.208a1.051,1.051,0,0,0-.25-1.333Zm-4.125-3.562a11.131,11.131,0,0,1,.1,1.521c0,.438-.042.9-.1,1.521L33.6,26.708l1.854,1.458,2.25,1.75-1.458,2.521L33.6,31.375,31.436,30.5l-1.875,1.417a12.2,12.2,0,0,1-2.6,1.521l-2.208.9-.333,2.354L24,39.5H21.082l-.4-2.812-.333-2.354-2.208-.9a11.821,11.821,0,0,1-2.562-1.479l-1.9-1.458-2.208.9L8.832,32.458,7.373,29.938l2.25-1.75,1.854-1.458-.292-2.354c-.063-.646-.1-1.125-.1-1.542s.042-.9.1-1.521l.292-2.354L9.623,17.5l-2.25-1.75,1.458-2.521,2.646,1.063,2.167.875,1.875-1.417a12.2,12.2,0,0,1,2.6-1.521l2.208-.9.333-2.354.417-2.812h2.9l.4,2.813.333,2.354,2.208.9a11.82,11.82,0,0,1,2.562,1.479l1.9,1.458,2.208-.9,2.646-1.062,1.458,2.521L35.457,17.5,33.6,18.958l.292,2.354ZM22.54,14.5a8.333,8.333,0,1,0,8.333,8.333A8.331,8.331,0,0,0,22.54,14.5Zm0,12.5a4.167,4.167,0,1,1,4.167-4.167A4.179,4.179,0,0,1,22.54,27Z" transform="translate(2.46 2.167)" fill="#666"/>
</svg>
