<svg xmlns="http://www.w3.org/2000/svg" width="30" height="28.618" viewBox="0 0 30 28.618">
  <g id="star_1_" data-name="star (1)" transform="translate(0)">
    <g id="Сгруппировать_64" data-name="Сгруппировать 64" transform="translate(0)">
      <path id="Контур_18" data-name="Контур 18" d="M29.957,22.661a.879.879,0,0,0-.709-.6l-9.3-1.351-4.159-8.427a.879.879,0,0,0-1.576,0l-4.159,8.427-9.3,1.351a.879.879,0,0,0-.487,1.5l6.729,6.56L5.407,39.384a.879.879,0,0,0,1.275.926L15,35.938l8.318,4.373a.879.879,0,0,0,1.275-.927L23,30.122l6.73-6.56A.879.879,0,0,0,29.957,22.661Zm-8.51,6.525a.879.879,0,0,0-.253.778l1.366,7.963-7.151-3.759a.879.879,0,0,0-.818,0L7.44,37.926l1.365-7.963a.879.879,0,0,0-.253-.778L2.768,23.546l7.995-1.162a.879.879,0,0,0,.662-.481L15,14.659,18.576,21.9a.879.879,0,0,0,.662.481l7.995,1.162Z" transform="translate(0 -11.794)" fill="#390"/>
    </g>
  </g>
</svg>
