<svg xmlns="http://www.w3.org/2000/svg" width="30" height="30" viewBox="0 0 30 30">
  <g id="INDUSTRIES_WE_COVER" data-name="INDUSTRIES WE COVER" transform="translate(-1348 -1712)">
    <rect id="Прямоугольник_454" data-name="Прямоугольник 454" width="30" height="30" transform="translate(1348 1712)" fill="#fff" opacity="0"/>
    <path id="INDUSTRIES_WE_COVER-2" data-name="INDUSTRIES WE COVER" d="M200.711,236.106h-1.577v-4.669a.592.592,0,0,0-.592-.592H187.092v-4.137a3.889,3.889,0,1,0-1.184,0v4.137H174.459a.592.592,0,0,0-.592.592v4.669H172.29a.792.792,0,0,0-.789.789v4.342a.791.791,0,0,0,.789.789h4.34a.791.791,0,0,0,.789-.789v-4.342a.792.792,0,0,0-.789-.789h-1.579v-4.077h10.857v4.077h-1.579a.793.793,0,0,0-.789.789v4.342a.792.792,0,0,0,.789.789h4.342a.792.792,0,0,0,.789-.789V236.9a.793.793,0,0,0-.789-.789h-1.579v-4.077H197.95v4.077h-1.579a.792.792,0,0,0-.789.789v4.342a.791.791,0,0,0,.789.789h4.34a.791.791,0,0,0,.789-.789V236.9a.792.792,0,0,0-.789-.79Z" transform="translate(1176.499 1496.006)" fill="#fff"/>
  </g>
</svg>
