<svg xmlns="http://www.w3.org/2000/svg" width="14" height="14" viewBox="0 0 14 14"><defs><style>.a{fill:#fff;opacity:0;}.b{fill:#390;}</style></defs><g transform="translate(-693 -441)"><rect class="a" width="14" height="14" transform="translate(693 441)"/><g transform="translate(693 260.639)"><path class="b" d="M13.992,184.493l-.006-.005c-.112-.105-.877-.04-.877-.04a.244.244,0,0,1-.017.04.319.319,0,0,1-.209.164,11.657,11.657,0,0,1-2.829-.091.163.163,0,0,0-.057-.073.632.632,0,0,0-.373-.062s-.019.026-.051.062a.842.842,0,0,1-.312.254c-.123.035-.15-.12-.135-.254a.536.536,0,0,1,.022-.108c.032-.1-.27-.423-.523-.588a.379.379,0,0,0-.269-.091,4.824,4.824,0,0,1-1.267-.339H.5s-.014.144-.038.27l-.007.034a.515.515,0,0,1-.039.126c-.009.017-.02.026-.03.022a.214.214,0,0,1-.041-.022c-.1-.065-.305-.233-.344-.136a.207.207,0,0,0,.022.136,1.968,1.968,0,0,1,.2.5v2.241a.279.279,0,0,0,.129.21c.13.107.308.2.279.416,0,0,0,.01,0,.015-.021.252.288.516.5.7.064.053.119.1.155.135.066.066.159.183.256.3.135.158.276.306.355.293.136-.023.385-.113.543.068a2.424,2.424,0,0,0,1.039.335h.174a2.406,2.406,0,0,1,.882,0,.262.262,0,0,1,.191.163.984.984,0,0,0,.13.267,1.932,1.932,0,0,0,.3.344s.113-.181.181-.317a.1.1,0,0,1,.02-.027.155.155,0,0,1,.182,0,.835.835,0,0,1,.341.525.892.892,0,0,0,.07.171,1.287,1.287,0,0,0,.4.43,1.741,1.741,0,0,0,.346.191s0-.08,0-.191.005-.292.012-.43c0-.046.005-.089.009-.126.023-.249.769-.475.905-.5s1.041.385,1.041.249c0-.114.144-.212.31-.321l.1-.064c.072-.048.161-.005.247.064.157.126.3.341.319.253.023-.136.453-.068.5.09a3.011,3.011,0,0,1,.08.352.864.864,0,0,1,.01.236.36.36,0,0,0,.07.194c.12.2.356.443.405.395a1.04,1.04,0,0,0,.078-.395,1.8,1.8,0,0,0-.015-.43.347.347,0,0,0-.085-.194.946.946,0,0,1-.172-.5,1.754,1.754,0,0,1-.007-.43.339.339,0,0,1,.088-.222c.071-.053.324-.25.589-.474.168-.142.341-.3.477-.43.2-.2.313-.353.224-.386-.146-.053-.167-.154-.151-.31.012-.11.041-.246.06-.414l0-.016c.051-.377.316.077.428-.436a.464.464,0,0,1,.164-.259c.305-.256.894-.257.786-.329a.19.19,0,0,1-.071-.1.427.427,0,0,1,.139-.442c.07-.052.211-.149.352-.254C13.822,184.751,14.047,184.562,13.992,184.493Z" transform="translate(0)"/></g></g></svg>