<svg id="twitter" xmlns="http://www.w3.org/2000/svg" width="36" height="36" viewBox="0 0 36 36">
  <g id="Сгруппировать_12" data-name="Сгруппировать 12">
    <rect id="Прямоугольник_14" data-name="Прямоугольник 14" width="36" height="36" fill="#390"/>
    <path id="twitter_hover" d="M262.715,249.942a10.2,10.2,0,0,0,2.285-2.4h0a9.12,9.12,0,0,1-2.623.686,4.683,4.683,0,0,0,1.946-2.485,10.6,10.6,0,0,1-2.877,1.114,4.721,4.721,0,0,0-3.3-1.457,4.489,4.489,0,0,0-4.485,4.542,4.224,4.224,0,0,0,.085,1.028,12.522,12.522,0,0,1-9.308-4.8,4.287,4.287,0,0,0-.592,2.314,4.6,4.6,0,0,0,2.031,3.771,4.037,4.037,0,0,1-2.031-.6v.086a4.494,4.494,0,0,0,3.638,4.456,4.936,4.936,0,0,1-1.185.171,2.843,2.843,0,0,1-.846-.086,4.56,4.56,0,0,0,4.231,3.171,9.046,9.046,0,0,1-5.585,1.971,4.762,4.762,0,0,1-1.1-.086,12.936,12.936,0,0,0,6.938,2.057c7.954.171,13.115-6.6,12.777-13.455Z" transform="translate(-236 -236.4)" fill="#fff"/>
  </g>
</svg>
